<?xml version="1.0" encoding="utf-8"?>
<!-- Generator: Adobe Illustrator 16.0.0, SVG Export Plug-In . SVG Version: 6.00 Build 0)  -->
<!DOCTYPE svg PUBLIC "-//W3C//DTD SVG 1.1//EN" "http://www.w3.org/Graphics/SVG/1.1/DTD/svg11.dtd">
<svg version="1.1" id="Calque_1" xmlns="http://www.w3.org/2000/svg" xmlns:xlink="http://www.w3.org/1999/xlink" x="0px" y="0px"
	 width="75px" height="75px" viewBox="0 0 75 75" enable-background="new 0 0 75 75" xml:space="preserve">
<circle fill="#989898" cx="37.318" cy="37.5" r="37.5"/>
<circle fill="#989898" cx="-43.682" cy="47.5" r="37.5"/>
<g>
	<path fill="#B3BF4A" d="M-58.82,21.112h-4.243c-0.354-1.557-1.745-2.723-3.408-2.723h-2.542c-0.87,0-1.58-0.709-1.58-1.58
		c0-1.928-1.567-3.496-3.496-3.496h-5.911c-1.928,0-3.496,1.568-3.496,3.496c0,0.871-0.708,1.58-1.579,1.58h-2.543
		c-1.662,0-3.054,1.166-3.407,2.723h-4.245c-1.832,0-3.322,1.489-3.322,3.321v41.172c0,1.832,1.49,3.322,3.322,3.322h36.451
		c1.833,0,3.323-1.49,3.323-3.322V24.433C-55.497,22.601-56.987,21.112-58.82,21.112z M-89.2,21.885c0-0.872,0.709-1.58,1.581-1.58
		h2.543c1.929,0,3.496-1.568,3.496-3.496c0-0.872,0.709-1.579,1.579-1.579h5.911c0.87,0,1.579,0.707,1.579,1.579
		c0,1.928,1.569,3.496,3.497,3.496h2.542c0.873,0,1.582,0.708,1.582,1.58v0.593H-89.2V21.885z M-57.413,65.605
		c0,0.775-0.631,1.406-1.407,1.406h-36.451c-0.775,0-1.405-0.631-1.405-1.406V24.433c0-0.774,0.63-1.405,1.405-1.405h4.156v0.408
		c0,0.529,0.43,0.957,0.958,0.957h26.225c0.529,0,0.958-0.428,0.958-0.957v-0.408h4.156c0.774,0,1.405,0.631,1.405,1.405V65.605
		L-57.413,65.605z"/>
	<path fill="#B3BF4A" d="M-87.115,35.883h-1.058c-0.529,0-0.959,0.429-0.959,0.957c0,0.53,0.43,0.959,0.959,0.959h1.058
		c0.529,0,0.958-0.429,0.958-0.959C-86.157,36.312-86.586,35.883-87.115,35.883z"/>
	<path fill="#B3BF4A" d="M-66.602,35.883h-16.252c-0.529,0-0.958,0.429-0.958,0.957c0,0.53,0.429,0.959,0.958,0.959h16.252
		c0.528,0,0.957-0.429,0.957-0.959C-65.645,36.312-66.073,35.883-66.602,35.883z"/>
	<path fill="#B3BF4A" d="M-87.115,40.354h-1.058c-0.529,0-0.959,0.43-0.959,0.959s0.43,0.959,0.959,0.959h1.058
		c0.529,0,0.958-0.43,0.958-0.959S-86.586,40.354-87.115,40.354z"/>
	<path fill="#B3BF4A" d="M-66.602,40.354h-16.252c-0.529,0-0.958,0.43-0.958,0.959s0.429,0.959,0.958,0.959h16.252
		c0.528,0,0.957-0.43,0.957-0.959S-66.073,40.354-66.602,40.354z"/>
	<path fill="#B3BF4A" d="M-87.115,44.824h-1.058c-0.529,0-0.959,0.43-0.959,0.959s0.43,0.957,0.959,0.957h1.058
		c0.529,0,0.958-0.428,0.958-0.957S-86.586,44.824-87.115,44.824z"/>
	<path fill="#B3BF4A" d="M-66.602,44.824h-16.252c-0.529,0-0.958,0.43-0.958,0.959s0.429,0.957,0.958,0.957h16.252
		c0.528,0,0.957-0.428,0.957-0.957S-66.073,44.824-66.602,44.824z"/>
	<path fill="#B3BF4A" d="M-87.115,49.297h-1.058c-0.529,0-0.959,0.428-0.959,0.957s0.43,0.959,0.959,0.959h1.058
		c0.529,0,0.958-0.43,0.958-0.959S-86.586,49.297-87.115,49.297z"/>
	<path fill="#B3BF4A" d="M-66.602,49.297h-16.252c-0.529,0-0.958,0.428-0.958,0.957s0.429,0.959,0.958,0.959h16.252
		c0.528,0,0.957-0.43,0.957-0.959S-66.073,49.297-66.602,49.297z"/>
	<path fill="#B3BF4A" d="M-87.115,53.766h-1.058c-0.529,0-0.959,0.43-0.959,0.959s0.43,0.959,0.959,0.959h1.058
		c0.529,0,0.958-0.43,0.958-0.959S-86.586,53.766-87.115,53.766z"/>
	<path fill="#B3BF4A" d="M-66.602,53.766h-16.252c-0.529,0-0.958,0.43-0.958,0.959s0.429,0.959,0.958,0.959h16.252
		c0.528,0,0.957-0.43,0.957-0.959S-66.073,53.766-66.602,53.766z"/>
</g>
<path fill="#FFFFFF" d="M62.636,39.062c-0.063-1.595-0.804-2.862-1.387-3.624c0.694-1.688,0.989-4.371-1.301-6.464
	c-3.751-3.429-12.621-1.567-13.62-1.344c-0.004,0.001-0.008,0.002-0.012,0.003c-0.564,0.1-1.16,0.22-1.772,0.359
	c-0.07-0.624-0.006-2.293,1.314-6.298c1.475-4.478,1.389-7.902-0.257-10.179c-1.731-2.39-4.5-2.576-5.308-2.576
	c-0.781,0-1.46,0.311-1.965,0.9c-1.161,1.356-0.993,3.948-0.867,5c-1.389,3.74-5.325,12.98-8.67,15.548
	c-0.054,0.042-0.106,0.088-0.153,0.138c-1,1.049-1.661,2.198-2.096,3.185c-0.632-0.363-1.362-0.576-2.142-0.576h-6.46
	c-2.376,0-4.31,1.934-4.31,4.31v17.201c0,2.377,1.934,4.311,4.31,4.311H24.4c0.978,0,1.877-0.331,2.601-0.883l2.401,0.366
	c0.009,0.001,0.019,0.003,0.027,0.004c0.288,0.037,7.11,0.916,14.109,0.773c1.261,0.099,2.442,0.148,3.539,0.148
	c1.893,0,3.534-0.146,4.904-0.438c3.207-0.682,5.398-2.041,6.514-4.04c0.86-1.547,0.84-3.092,0.698-4.05
	c2.88-2.592,2.7-5.706,1.967-7.606C62.197,41.915,62.693,40.515,62.636,39.062z M17.94,56.29c-0.906,0-1.644-0.737-1.644-1.644
	V37.445c0-0.906,0.738-1.645,1.644-1.645H24.4c0.573,0,1.078,0.296,1.372,0.742c0.03,0.226,0.112,0.438,0.244,0.617
	c0.017,0.093,0.028,0.187,0.028,0.285v17.201c0,0.906-0.737,1.644-1.644,1.644H17.94z M58.619,42.097
	c-0.417,0.436-0.495,1.087-0.182,1.603c0.184,0.314,1.701,3.145-1.521,5.565c-0.467,0.35-0.654,0.953-0.459,1.504
	c0.021,0.059,0.481,1.471-0.307,2.853c-0.73,1.281-2.32,2.19-4.723,2.7c-1.929,0.41-4.534,0.489-7.747,0.235
	c-0.044-0.004-0.089-0.005-0.133-0.004c-6.675,0.142-13.422-0.706-13.761-0.749l-1.193-0.183c0.073-0.313,0.115-0.639,0.115-0.975
	V37.445c0-0.457-0.073-0.896-0.205-1.31c0.199-0.757,0.74-2.349,1.999-3.705c4.73-3.743,9.378-16.446,9.574-16.989
	c0.078-0.211,0.101-0.438,0.065-0.659c-0.195-1.25-0.101-2.804,0.183-3.179c0.526,0.005,2.147,0.135,3.114,1.474
	c1.103,1.522,1.062,4.213-0.113,7.782c-1.761,5.346-1.928,8.147-0.551,9.37c0.674,0.598,1.566,0.631,2.217,0.394
	c0.646-0.148,1.27-0.275,1.856-0.377c0.043-0.008,0.085-0.017,0.127-0.028c2.246-0.492,8.884-1.371,11.176,0.724
	c1.77,1.619,0.521,3.751,0.379,3.982c-0.35,0.545-0.249,1.27,0.228,1.709c0.011,0.01,1.168,1.089,1.216,2.557
	C60.004,40.147,59.549,41.125,58.619,42.097z"/>
</svg>