<?xml version="1.0" encoding="utf-8"?>
<!-- Generator: Adobe Illustrator 16.0.0, SVG Export Plug-In . SVG Version: 6.00 Build 0)  -->
<!DOCTYPE svg PUBLIC "-//W3C//DTD SVG 1.1//EN" "http://www.w3.org/Graphics/SVG/1.1/DTD/svg11.dtd">
<svg version="1.1" id="Calque_1" xmlns="http://www.w3.org/2000/svg" xmlns:xlink="http://www.w3.org/1999/xlink" x="0px" y="0px"
	 width="35.072px" height="35.126px" viewBox="0 0 35.072 35.126" enable-background="new 0 0 35.072 35.126" xml:space="preserve">
<g>
	<path fill-rule="evenodd" clip-rule="evenodd" fill="#E52613" d="M34.947,4.857c0,1.327,0,2.655,0,4.09
		C34.503,8.968,34.129,8.999,33.756,9c-3.155,0.013-6.315-0.083-9.465,0.056c-4.422,0.195-8.589,1.322-12.149,4.1
		C7.763,16.572,6.2,21.231,6.421,26.604c0.06,1.418,0.329,2.826,0.528,4.459c-1.919-4.752-2.826-9.378-1.174-14.191
		c1.573-4.586,4.832-7.618,9.119-9.653c2.527-1.199,5.213-1.825,7.979-2.153c0.307-0.038,0.607-0.138,0.911-0.208
		C27.505,4.857,31.225,4.857,34.947,4.857z"/>
	<path fill-rule="evenodd" clip-rule="evenodd" fill="#E52613" d="M11.569,4.857C8.541,6.87,6.005,9.343,4.413,12.665
		C2.454,16.75,2.13,21.016,3.202,25.38c0.464,1.888,1.127,3.729,1.748,5.746c-2.396-4.023-4.189-8.098-4.771-12.658
		c-0.629-4.946,0.394-9.476,3.176-13.61C6.093,4.857,8.831,4.857,11.569,4.857z"/>
</g>
</svg>
