<?xml version="1.0" encoding="utf-8"?>
<!-- Generator: Adobe Illustrator 16.0.0, SVG Export Plug-In . SVG Version: 6.00 Build 0)  -->
<!DOCTYPE svg PUBLIC "-//W3C//DTD SVG 1.1//EN" "http://www.w3.org/Graphics/SVG/1.1/DTD/svg11.dtd">
<svg version="1.1" id="Calque_1" xmlns="http://www.w3.org/2000/svg" xmlns:xlink="http://www.w3.org/1999/xlink" x="0px" y="0px"
	 width="80px" height="60.636px" viewBox="0 0 80 60.636" enable-background="new 0 0 80 60.636" xml:space="preserve">
<g>
	<g>
		<g>
			<g>
				<path fill="#FFFFFF" d="M73.751,31.745c-0.293-2.705-1.522-5.32-1.522-5.32l-4.941-4.771c0,0-7.81-12.372-10.176-13.976
					C54.415,5.85,40.983,5.99,40.983,5.99h-1.648c0,0-13.433-0.14-16.128,1.689c-2.364,1.603-10.175,13.976-10.175,13.976
					l-4.939,4.771c0,0-1.226,2.617-1.522,5.318c-0.142,1.305-1.266,6.928,3.631,15.451v5.999c0,0,0.593,1.18,2.026,1.18h4.899
					c0,0,1.519-0.252,1.519-1.18v-5.322l2.536-2.189h18.324h1.31h18.324l2.538,2.189v5.322c0,0.928,1.516,1.18,1.516,1.18h4.899
					c1.434,0,2.027-1.18,2.027-1.18v-5.999C75.021,38.673,73.894,33.048,73.751,31.745z M20.926,14.939c0,0,3.052-5.777,5.788-6.082
					c2.279-0.252,5.361-0.591,11.779-0.843h3.083c6.419,0.252,9.503,0.59,11.783,0.843c2.729,0.304,5.78,6.082,5.78,6.082
					l3.548,5.829c0,0-4.805-0.604-7.089-0.761c-6.676-0.462-13.09-0.423-13.09-0.423h-4.943c0,0-6.42-0.041-13.089,0.423
					c-2.286,0.159-7.095,0.761-7.095,0.761L20.926,14.939z M11.132,35.587C9.42,34.132,9.42,30.772,9.42,30.772
					c-0.19-3.294,3.294-3.989,3.294-3.989s4.306-0.064,8.93,8.93L11.132,35.587z M55.855,30.52c0,0-4.874,4.623-9.309,5.638
					l-5.194-0.064h-2.417l-5.194,0.064c-4.434-1.013-9.311-5.638-9.311-5.638c-2.976-1.71-1.835-3.23-1.835-3.23
					c3.735-1.837,16.722-1.711,16.722-1.711h1.656c0,0,12.987-0.127,16.723,1.711C57.692,27.29,58.835,28.811,55.855,30.52z
					 M69.159,35.587l-10.511,0.129c4.621-8.997,8.927-8.93,8.927-8.93s3.487,0.695,3.294,3.989
					C70.869,30.772,70.869,34.132,69.159,35.587z"/>
				<path fill="#FFFFFF" d="M67.513,20.324l4.691,0.127c3.166-1.964-0.193-3.735-0.193-3.735l-6.142-0.064
					c-0.319,0.887-0.51,1.966-0.51,1.966l1.966,2.911L67.513,20.324z"/>
				<path fill="#FFFFFF" d="M8.092,20.45l4.685-0.127l0.191,1.202l1.962-2.912c0,0-0.188-1.079-0.504-1.966L8.28,16.71
					C8.28,16.714,4.924,18.486,8.092,20.45z"/>
			</g>
		</g>
	</g>
</g>
</svg>
