<?xml version="1.0" encoding="utf-8"?>
<!-- Generator: Adobe Illustrator 16.0.0, SVG Export Plug-In . SVG Version: 6.00 Build 0)  -->
<!DOCTYPE svg PUBLIC "-//W3C//DTD SVG 1.1//EN" "http://www.w3.org/Graphics/SVG/1.1/DTD/svg11.dtd">
<svg version="1.1" id="Calque_1" xmlns="http://www.w3.org/2000/svg" xmlns:xlink="http://www.w3.org/1999/xlink" x="0px" y="0px"
	 width="35.072px" height="35.126px" viewBox="0 0 35.072 35.126" enable-background="new 0 0 35.072 35.126" xml:space="preserve">
<g>
	<g>
		<g>
			<g>
				<path fill="#99BE50" d="M34.759,19.09c-0.151-1.394-0.783-2.744-0.783-2.744l-2.549-2.461c0,0-4.027-6.381-5.25-7.209
					c-1.39-0.944-8.317-0.871-8.317-0.871h-0.851c0,0-6.928-0.073-8.318,0.871c-1.22,0.828-5.249,7.209-5.249,7.209l-2.548,2.461
					c0,0-0.632,1.35-0.785,2.744c-0.073,0.673-0.653,3.574,1.872,7.97v3.093c0,0,0.307,0.609,1.046,0.609h2.527
					c0,0,0.783-0.131,0.783-0.609v-2.745l1.309-1.13h9.452h0.674h9.451l1.311,1.13v2.745c0,0.479,0.781,0.609,0.781,0.609h2.526
					c0.74,0,1.046-0.609,1.046-0.609V27.06C35.416,22.664,34.833,19.762,34.759,19.09z M7.514,10.421c0,0,1.575-2.979,2.984-3.137
					c1.176-0.129,2.766-0.304,6.077-0.434h1.59c3.311,0.13,4.902,0.305,6.078,0.434c1.407,0.158,2.982,3.137,2.982,3.137l1.83,3.007
					c0,0-2.48-0.312-3.658-0.393c-3.442-0.239-6.751-0.219-6.751-0.219h-2.549c0,0-3.311-0.021-6.751,0.219
					c-1.18,0.081-3.66,0.393-3.66,0.393L7.514,10.421z M2.462,21.071c-0.882-0.75-0.882-2.483-0.882-2.483
					C1.481,16.89,3.278,16.53,3.278,16.53s2.221-0.033,4.606,4.607L2.462,21.071z M25.53,18.458c0,0-2.514,2.385-4.801,2.908
					l-2.68-0.034h-1.246l-2.679,0.034c-2.287-0.523-4.803-2.908-4.803-2.908c-1.535-0.882-0.947-1.666-0.947-1.666
					C10.302,15.844,17,15.91,17,15.91h0.854c0,0,6.699-0.065,8.626,0.882C26.477,16.792,27.066,17.576,25.53,18.458z M32.39,21.071
					l-5.421,0.066c2.384-4.64,4.604-4.606,4.604-4.606s1.801,0.358,1.7,2.058C33.274,18.588,33.274,20.321,32.39,21.071z"/>
				<path fill="#99BE50" d="M31.542,13.199l2.419,0.065c1.635-1.013-0.099-1.927-0.099-1.927l-3.168-0.033
					c-0.164,0.457-0.263,1.014-0.263,1.014l1.012,1.501L31.542,13.199z"/>
				<path fill="#99BE50" d="M0.894,13.264l2.417-0.065l0.099,0.62l1.012-1.501c0,0-0.097-0.557-0.261-1.014l-3.169,0.033
					C0.991,11.337-0.74,12.251,0.894,13.264z"/>
			</g>
		</g>
	</g>
</g>
</svg>
