<?xml version="1.0" encoding="utf-8"?>
<!-- Generator: Adobe Illustrator 16.0.0, SVG Export Plug-In . SVG Version: 6.00 Build 0)  -->
<!DOCTYPE svg PUBLIC "-//W3C//DTD SVG 1.1//EN" "http://www.w3.org/Graphics/SVG/1.1/DTD/svg11.dtd">
<svg version="1.1" id="Calque_1" xmlns="http://www.w3.org/2000/svg" xmlns:xlink="http://www.w3.org/1999/xlink" x="0px" y="0px"
	 width="75px" height="75px" viewBox="0 0 75 75" enable-background="new 0 0 75 75" xml:space="preserve">
<circle fill="#989898" cx="37.318" cy="37.5" r="37.5"/>
<circle fill="#989898" cx="-43.682" cy="47.5" r="37.5"/>
<g>
	<path fill="#B3BF4A" d="M-58.82,21.112h-4.243c-0.354-1.557-1.745-2.723-3.408-2.723h-2.542c-0.87,0-1.58-0.709-1.58-1.58
		c0-1.928-1.567-3.496-3.496-3.496h-5.911c-1.928,0-3.496,1.568-3.496,3.496c0,0.871-0.708,1.58-1.579,1.58h-2.543
		c-1.662,0-3.054,1.166-3.407,2.723h-4.245c-1.832,0-3.322,1.489-3.322,3.321v41.172c0,1.832,1.49,3.322,3.322,3.322h36.451
		c1.833,0,3.323-1.49,3.323-3.322V24.433C-55.497,22.601-56.987,21.112-58.82,21.112z M-89.2,21.885c0-0.872,0.709-1.58,1.581-1.58
		h2.543c1.929,0,3.496-1.568,3.496-3.496c0-0.872,0.709-1.579,1.579-1.579h5.911c0.87,0,1.579,0.707,1.579,1.579
		c0,1.928,1.569,3.496,3.497,3.496h2.542c0.873,0,1.582,0.708,1.582,1.58v0.593H-89.2V21.885z M-57.413,65.605
		c0,0.775-0.631,1.406-1.407,1.406h-36.451c-0.775,0-1.405-0.631-1.405-1.406V24.433c0-0.774,0.63-1.405,1.405-1.405h4.156v0.408
		c0,0.529,0.43,0.957,0.958,0.957h26.225c0.529,0,0.958-0.428,0.958-0.957v-0.408h4.156c0.774,0,1.405,0.631,1.405,1.405V65.605
		L-57.413,65.605z"/>
	<path fill="#B3BF4A" d="M-87.115,35.883h-1.058c-0.529,0-0.959,0.429-0.959,0.957c0,0.53,0.43,0.959,0.959,0.959h1.058
		c0.529,0,0.958-0.429,0.958-0.959C-86.157,36.312-86.586,35.883-87.115,35.883z"/>
	<path fill="#B3BF4A" d="M-66.602,35.883h-16.252c-0.529,0-0.958,0.429-0.958,0.957c0,0.53,0.429,0.959,0.958,0.959h16.252
		c0.528,0,0.957-0.429,0.957-0.959C-65.645,36.312-66.073,35.883-66.602,35.883z"/>
	<path fill="#B3BF4A" d="M-87.115,40.354h-1.058c-0.529,0-0.959,0.43-0.959,0.959s0.43,0.959,0.959,0.959h1.058
		c0.529,0,0.958-0.43,0.958-0.959S-86.586,40.354-87.115,40.354z"/>
	<path fill="#B3BF4A" d="M-66.602,40.354h-16.252c-0.529,0-0.958,0.43-0.958,0.959s0.429,0.959,0.958,0.959h16.252
		c0.528,0,0.957-0.43,0.957-0.959S-66.073,40.354-66.602,40.354z"/>
	<path fill="#B3BF4A" d="M-87.115,44.824h-1.058c-0.529,0-0.959,0.43-0.959,0.959s0.43,0.957,0.959,0.957h1.058
		c0.529,0,0.958-0.428,0.958-0.957S-86.586,44.824-87.115,44.824z"/>
	<path fill="#B3BF4A" d="M-66.602,44.824h-16.252c-0.529,0-0.958,0.43-0.958,0.959s0.429,0.957,0.958,0.957h16.252
		c0.528,0,0.957-0.428,0.957-0.957S-66.073,44.824-66.602,44.824z"/>
	<path fill="#B3BF4A" d="M-87.115,49.297h-1.058c-0.529,0-0.959,0.428-0.959,0.957s0.43,0.959,0.959,0.959h1.058
		c0.529,0,0.958-0.43,0.958-0.959S-86.586,49.297-87.115,49.297z"/>
	<path fill="#B3BF4A" d="M-66.602,49.297h-16.252c-0.529,0-0.958,0.428-0.958,0.957s0.429,0.959,0.958,0.959h16.252
		c0.528,0,0.957-0.43,0.957-0.959S-66.073,49.297-66.602,49.297z"/>
	<path fill="#B3BF4A" d="M-87.115,53.766h-1.058c-0.529,0-0.959,0.43-0.959,0.959s0.43,0.959,0.959,0.959h1.058
		c0.529,0,0.958-0.43,0.958-0.959S-86.586,53.766-87.115,53.766z"/>
	<path fill="#B3BF4A" d="M-66.602,53.766h-16.252c-0.529,0-0.958,0.43-0.958,0.959s0.429,0.959,0.958,0.959h16.252
		c0.528,0,0.957-0.43,0.957-0.959S-66.073,53.766-66.602,53.766z"/>
</g>
<g>
	<path fill="#FFFFFF" d="M61.983,57.865l-3.072-2.902c3.481-4.796,2.9-11.5-1.364-15.624c-2.245-2.174-5.2-3.369-8.322-3.369
		c-3.271,0-6.326,1.292-8.601,3.647c-2.224,2.295-3.418,5.32-3.366,8.518c0.053,3.195,1.345,6.181,3.645,8.402
		c2.243,2.172,5.198,3.368,8.319,3.368c2.542,0,4.959-0.782,7-2.256l3.118,2.946c0.36,0.351,0.832,0.541,1.332,0.541
		c0.52,0,1.004-0.203,1.363-0.575C62.764,59.81,62.742,58.6,61.983,57.865z M49.225,38.443c2.477,0,4.821,0.948,6.603,2.67
		c3.763,3.642,3.862,9.665,0.222,13.427c-1.806,1.865-4.229,2.893-6.826,2.893c-2.477,0-4.818-0.949-6.601-2.67
		c-1.824-1.764-2.851-4.132-2.891-6.669c-0.042-2.535,0.904-4.935,2.669-6.759C44.207,39.47,46.628,38.443,49.225,38.443z"/>
	<path fill="#FFFFFF" d="M31.863,43.841c0.028,0.006,0.055,0.009,0.085,0.013l2.341,0.215c0.015,0.004,0.033,0.006,0.049,0.006
		h0.002c0.321,0,0.646-0.293,0.753-0.68l0.637-2.261c0.116-0.411-0.033-0.85-0.336-0.996l-2.112-1.037
		c-0.021-0.01-0.041-0.019-0.06-0.027l-0.016-0.008c-0.068-0.682-0.236-1.35-0.507-1.989c0.02-0.024,0.04-0.052,0.057-0.074
		l1.358-1.925c0.195-0.277,0.114-0.733-0.186-1.04l-1.645-1.693c-0.19-0.193-0.449-0.309-0.691-0.309
		c-0.13,0-0.25,0.035-0.344,0.099l-1.952,1.314c-0.028,0.017-0.054,0.038-0.081,0.059c-0.296-0.134-0.616-0.249-0.949-0.344
		c-0.333-0.094-0.664-0.161-0.989-0.2c-0.011-0.035-0.024-0.068-0.04-0.1l-0.984-2.139c-0.109-0.239-0.395-0.393-0.729-0.393
		c-0.088,0-0.175,0.011-0.26,0.034l-2.291,0.585c-0.415,0.107-0.722,0.456-0.698,0.792l0.155,2.351
		c0.001,0.03,0.007,0.063,0.014,0.1c-0.549,0.394-1.036,0.869-1.452,1.413c-0.028-0.009-0.061-0.013-0.096-0.016l-2.341-0.216
		c-0.338-0.03-0.693,0.274-0.807,0.682l-0.641,2.277c-0.116,0.413,0.03,0.854,0.335,1.004l2.107,1.034
		c0.031,0.017,0.057,0.027,0.084,0.037c0.065,0.679,0.234,1.347,0.502,1.979c-0.021,0.022-0.039,0.046-0.061,0.074l-1.358,1.922
		c-0.196,0.274-0.116,0.73,0.181,1.036l1.636,1.68c0.186,0.192,0.441,0.306,0.685,0.306c0.13,0,0.25-0.032,0.344-0.098l1.954-1.315
		c0.021-0.014,0.043-0.031,0.064-0.048c0.31,0.146,0.644,0.266,0.99,0.363c0.325,0.092,0.665,0.16,1.008,0.204
		c0.008,0.022,0.018,0.044,0.028,0.071l0.981,2.14c0.108,0.238,0.396,0.393,0.728,0.393c0.088,0,0.174-0.01,0.258-0.031l2.273-0.583
		c0.412-0.104,0.719-0.453,0.694-0.79l-0.16-2.35c-0.001-0.025-0.003-0.05-0.009-0.073C30.945,44.884,31.445,44.397,31.863,43.841z
		 M29.568,40.714c-0.41,1.458-1.751,2.477-3.259,2.477c-0.308,0-0.617-0.044-0.917-0.127c-0.872-0.246-1.593-0.815-2.036-1.603
		c-0.442-0.793-0.55-1.707-0.307-2.579c0.41-1.457,1.751-2.479,3.263-2.479c0.307,0,0.615,0.045,0.915,0.129
		c0.871,0.243,1.594,0.813,2.036,1.603C29.705,38.926,29.812,39.842,29.568,40.714z"/>
	<path fill="#FFFFFF" d="M26.947,37.867c-0.173-0.048-0.349-0.074-0.528-0.074c-0.865,0-1.632,0.583-1.867,1.417
		c-0.29,1.031,0.312,2.106,1.342,2.396c0.172,0.047,0.348,0.073,0.524,0.073c0.001,0,0.001,0,0.001,0
		c0.865,0,1.633-0.584,1.867-1.42C28.579,39.231,27.975,38.155,26.947,37.867z"/>
	<path fill="#FFFFFF" d="M24.033,22.916c-0.014-0.001-0.029-0.003-0.044-0.005l-1.345-0.123c-0.205-0.02-0.417,0.162-0.486,0.404
		l-0.368,1.309c-0.07,0.247,0.019,0.513,0.202,0.602l1.211,0.594c0.014,0.007,0.027,0.014,0.04,0.017
		c0.04,0.384,0.136,0.763,0.286,1.122c-0.01,0.011-0.018,0.022-0.029,0.036l-0.782,1.105c-0.118,0.167-0.072,0.439,0.105,0.619
		l0.941,0.966c0.11,0.115,0.263,0.183,0.409,0.183c0.079,0,0.15-0.021,0.209-0.06l1.123-0.756c0.009-0.007,0.02-0.015,0.029-0.021
		c0.178,0.083,0.368,0.149,0.561,0.205c0.183,0.052,0.376,0.092,0.571,0.117c0.001,0.005,0.005,0.01,0.007,0.016l0.571,1.247
		c0.065,0.144,0.239,0.236,0.436,0.236c0.052,0,0.104-0.004,0.154-0.017l1.306-0.334c0.247-0.063,0.428-0.272,0.415-0.475
		l-0.091-1.352c-0.001-0.011-0.001-0.021-0.002-0.032c0.32-0.231,0.604-0.506,0.842-0.819c0.012,0,0.025,0.003,0.039,0.003
		l1.346,0.125c0.011,0.001,0.022,0.001,0.031,0.001c0.194,0,0.388-0.173,0.453-0.404l0.364-1.299
		c0.07-0.248-0.019-0.507-0.202-0.594l-1.214-0.599c-0.011-0.004-0.02-0.007-0.03-0.014h-0.005c-0.04-0.388-0.138-0.769-0.29-1.13
		c0.011-0.012,0.02-0.023,0.029-0.034l0.78-1.107c0.118-0.168,0.069-0.44-0.109-0.623l-0.946-0.974
		c-0.111-0.116-0.266-0.183-0.41-0.183c-0.079,0-0.151,0.021-0.21,0.061l-1.122,0.754c-0.014,0.009-0.026,0.018-0.039,0.028
		c-0.17-0.077-0.35-0.142-0.539-0.194c-0.187-0.053-0.376-0.092-0.56-0.114c-0.006-0.015-0.01-0.032-0.018-0.048l-0.567-1.231
		c-0.065-0.143-0.235-0.236-0.436-0.236c-0.052,0-0.104,0.007-0.155,0.02l-1.316,0.336c-0.248,0.064-0.429,0.273-0.415,0.476
		l0.088,1.352c0.001,0.016,0.004,0.032,0.006,0.048C24.545,22.342,24.269,22.609,24.033,22.916z M25.243,24.826
		c0.233-0.83,0.996-1.409,1.855-1.409c0.176,0,0.351,0.024,0.522,0.07c0.496,0.143,0.908,0.466,1.159,0.916
		c0.251,0.449,0.314,0.972,0.174,1.47c-0.232,0.828-0.996,1.408-1.857,1.408c-0.173,0-0.351-0.025-0.52-0.07
		C25.552,26.92,24.953,25.852,25.243,24.826z"/>
	<path fill="#FFFFFF" d="M26.854,26.408c0.1,0.028,0.204,0.041,0.31,0.041c0.504,0,0.954-0.339,1.091-0.829
		c0.082-0.292,0.046-0.6-0.102-0.865c-0.148-0.263-0.39-0.453-0.683-0.536c-0.1-0.029-0.203-0.042-0.307-0.042
		c-0.507,0-0.956,0.341-1.093,0.829C25.9,25.611,26.251,26.239,26.854,26.408z"/>
	<path fill="#FFFFFF" d="M42.349,27.692c0.018,0.003,0.035,0.006,0.055,0.007l1.654,0.154c0.014,0,0.025,0.001,0.038,0.001
		c0.232,0,0.468-0.209,0.546-0.49l0.451-1.6c0.083-0.297-0.024-0.613-0.243-0.719l-1.496-0.734c-0.015-0.007-0.026-0.013-0.04-0.016
		l-0.008-0.004c-0.048-0.479-0.167-0.949-0.356-1.399c0.014-0.015,0.026-0.03,0.037-0.045l0.961-1.362
		c0.143-0.202,0.085-0.531-0.132-0.753l-1.164-1.198c-0.137-0.139-0.324-0.221-0.499-0.221c-0.094,0-0.182,0.025-0.251,0.072
		l-1.38,0.928c-0.018,0.011-0.035,0.023-0.053,0.038c-0.209-0.094-0.434-0.174-0.665-0.24c-0.231-0.065-0.464-0.113-0.694-0.142
		c-0.007-0.022-0.014-0.044-0.023-0.064l-0.697-1.513c-0.08-0.174-0.287-0.286-0.529-0.286c-0.062,0-0.125,0.008-0.187,0.022
		l-1.62,0.415c-0.299,0.077-0.521,0.33-0.504,0.575l0.109,1.663c0.003,0.022,0.005,0.043,0.011,0.066
		c-0.385,0.278-0.728,0.609-1.018,0.991c-0.02-0.005-0.041-0.009-0.063-0.01l-1.656-0.152c-0.244-0.023-0.502,0.199-0.585,0.493
		l-0.453,1.61c-0.084,0.3,0.023,0.618,0.244,0.726l1.491,0.733c0.018,0.01,0.036,0.016,0.051,0.024
		c0.048,0.476,0.167,0.943,0.354,1.388c-0.013,0.015-0.025,0.028-0.038,0.047l-0.96,1.358c-0.144,0.201-0.086,0.531,0.128,0.752
		l1.159,1.188c0.134,0.137,0.318,0.22,0.493,0.22c0.096,0,0.183-0.025,0.253-0.072l1.382-0.931c0.012-0.01,0.026-0.018,0.039-0.029
		c0.223,0.101,0.457,0.188,0.695,0.256c0.227,0.062,0.464,0.11,0.707,0.142c0.006,0.013,0.012,0.028,0.019,0.045l0.694,1.514
		c0.078,0.171,0.287,0.284,0.527,0.284c0.064,0,0.127-0.006,0.187-0.021l1.608-0.411c0.297-0.077,0.52-0.33,0.502-0.574
		l-0.112-1.663c-0.003-0.017-0.005-0.031-0.006-0.046C41.703,28.423,42.055,28.08,42.349,27.692z M40.707,25.462
		c-0.288,1.025-1.231,1.742-2.294,1.742c-0.217,0-0.437-0.032-0.645-0.089c-0.613-0.173-1.122-0.575-1.432-1.129
		c-0.312-0.554-0.388-1.2-0.215-1.812c0.29-1.027,1.231-1.745,2.294-1.745c0.217,0,0.435,0.031,0.646,0.089
		C40.324,22.875,41.063,24.195,40.707,25.462z"/>
	<path fill="#FFFFFF" d="M38.867,23.437c-0.123-0.034-0.249-0.051-0.375-0.051c-0.618,0-1.167,0.417-1.334,1.013
		c-0.1,0.356-0.056,0.731,0.124,1.053c0.183,0.325,0.478,0.557,0.833,0.658c0.125,0.033,0.25,0.052,0.377,0.052
		c0.617,0,1.168-0.417,1.335-1.012c0.1-0.357,0.054-0.732-0.128-1.055C39.52,23.771,39.225,23.539,38.867,23.437z"/>
	<path fill="#FFFFFF" d="M37.374,53.448l-0.034-0.069l-0.075,0.024c-2.009,0.618-4.106,0.931-6.232,0.931
		c-11.703,0-21.225-9.521-21.225-21.224c0-11.703,9.521-21.225,21.225-21.225S52.26,21.407,52.26,33.11
		c0,0.679-0.033,1.356-0.096,2.016l-0.009,0.078l0.075,0.019c0.754,0.176,1.498,0.422,2.214,0.735l0.107,0.048l0.016-0.12
		c0.108-0.913,0.164-1.847,0.164-2.775c0-5.843-2.128-11.197-5.647-15.334c-0.387-0.457-0.79-0.896-1.213-1.322
		c-4.296-4.344-10.258-7.041-16.837-7.041c-13.067,0-23.697,10.631-23.697,23.696c0,5.994,2.237,11.476,5.918,15.652
		c0.596,0.676,1.229,1.318,1.897,1.923c4.208,3.802,9.777,6.123,15.882,6.123c2.552,0,5.061-0.405,7.463-1.205l0.113-0.038
		l-0.068-0.099C38.096,54.834,37.699,54.155,37.374,53.448z"/>
	<path fill="#FFFFFF" d="M53.663,51.803h1.562c0.216,0,0.395-0.177,0.395-0.392v-7.434c0-0.215-0.179-0.391-0.395-0.391h-1.562
		c-0.216,0-0.394,0.176-0.394,0.391v7.434C53.27,51.625,53.445,51.803,53.663,51.803z"/>
	<path fill="#FFFFFF" d="M50.364,51.803h1.565c0.219,0,0.392-0.177,0.392-0.392v-4.515c0-0.216-0.173-0.391-0.392-0.391h-1.565
		c-0.217,0-0.389,0.175-0.389,0.391v4.515C49.976,51.625,50.147,51.803,50.364,51.803z"/>
	<path fill="#FFFFFF" d="M47.068,51.803h1.563c0.219,0,0.393-0.177,0.393-0.392v-1.623c0-0.218-0.174-0.392-0.393-0.392h-1.563
		c-0.217,0-0.392,0.174-0.392,0.392v1.623C46.677,51.625,46.852,51.803,47.068,51.803z"/>
	<path fill="#FFFFFF" d="M43.772,51.803h1.563c0.217,0,0.393-0.177,0.393-0.392v-2.259c0-0.215-0.176-0.392-0.393-0.392h-1.563
		c-0.218,0-0.392,0.177-0.392,0.392v2.259C43.381,51.625,43.555,51.803,43.772,51.803z"/>
</g>
</svg>
