<?xml version="1.0" encoding="utf-8"?>
<!-- Generator: Adobe Illustrator 16.0.0, SVG Export Plug-In . SVG Version: 6.00 Build 0)  -->
<!DOCTYPE svg PUBLIC "-//W3C//DTD SVG 1.1//EN" "http://www.w3.org/Graphics/SVG/1.1/DTD/svg11.dtd">
<svg version="1.1" id="Calque_1" xmlns:sketch="http://www.bohemiancoding.com/sketch/ns"
	 xmlns="http://www.w3.org/2000/svg" xmlns:xlink="http://www.w3.org/1999/xlink" x="0px" y="0px" width="99.749px"
	 height="99.749px" viewBox="-49.749 -49.749 99.749 99.749" enable-background="new -49.749 -49.749 99.749 99.749"
	 xml:space="preserve">
<title>file_066-download_file-text-document-paper-arrow</title>
<desc>Created with Sketch.</desc>
<g sketch:type="MSPage">
	<g transform="translate(-270.000000, -270.000000)" sketch:type="MSArtboardGroup">
		<g transform="translate(276.000000, 273.000000)" sketch:type="MSLayerGroup">
			<path sketch:type="MSShapeGroup" fill="#989898" d="M-37.337,19.708c0,0.571,0.463,1.036,1.038,1.036h35.266
				c0.571,0,1.036-0.465,1.036-1.036v-37.964c0-0.275-0.109-0.539-0.304-0.733l-9.75-9.75c-0.194-0.195-0.457-0.303-0.733-0.303
				h-25.517c-0.573,0-1.036,0.463-1.036,1.038V19.708z M-2.072,18.669h-33.191v-45.638h22.82v9.335c0,0.574,0.465,1.038,1.036,1.038
				h9.335V18.669z M-2.922-18.67h-7.446v-7.448L-2.922-18.67z"/>
			<path sketch:type="MSShapeGroup" fill="#989898" d="M-15.263-1.771c0.407-0.406,1.063-0.406,1.468-0.002
				c0.407,0.405,0.407,1.062,0.003,1.468l-4.14,4.149c-0.405,0.405-1.063,0.405-1.468,0l-4.149-4.149
				c-0.404-0.405-0.404-1.062,0-1.466c0.405-0.406,1.063-0.406,1.468,0l2.378,2.381v-7.872c0-0.573,0.463-1.038,1.038-1.038
				c0.574,0,1.036,0.463,1.036,1.038v7.864L-15.263-1.771z"/>
		</g>
	</g>
</g>
</svg>
