<?xml version="1.0" encoding="utf-8"?>
<!-- Generator: Adobe Illustrator 16.0.0, SVG Export Plug-In . SVG Version: 6.00 Build 0)  -->
<!DOCTYPE svg PUBLIC "-//W3C//DTD SVG 1.1//EN" "http://www.w3.org/Graphics/SVG/1.1/DTD/svg11.dtd">
<svg version="1.1" id="Calque_1" xmlns="http://www.w3.org/2000/svg" xmlns:xlink="http://www.w3.org/1999/xlink" x="0px" y="0px"
	 width="37px" height="37px" viewBox="0 0 37 37" enable-background="new 0 0 37 37" xml:space="preserve">
<g>
	<path fill="#FFFFFF" d="M16.836,5.517c-1.051,0.57-1.786,1.332-2.189,2.267c-0.378,0.878-0.562,2.122-0.562,3.809v0.574h-2.718
		v5.487h2.718v14.647h6.531V17.655h3.657v-5.487h-3.657v-0.487c0-1.057,0.217-1.323,0.243-1.352c0.142-0.151,0.47-0.234,0.925-0.234
		c0.647,0,1.342,0.085,2.057,0.256l0.828,0.198l0.965-4.969l-0.696-0.22C22.104,4.471,18.836,4.432,16.836,5.517z M23.381,8.592
		c-1.545-0.251-3-0.154-3.723,0.624c-0.459,0.492-0.682,1.296-0.682,2.463v2.125h3.659v2.214h-3.659v14.649h-3.258V16.019h-2.716
		v-2.214h2.716v-2.211c0-1.438,0.145-2.501,0.43-3.16c0.259-0.599,0.738-1.081,1.468-1.478c1.433-0.778,3.919-0.79,6.128-0.233
		L23.381,8.592z"/>
</g>
</svg>
