<?xml version="1.0" encoding="utf-8"?>
<!-- Generator: Adobe Illustrator 16.0.0, SVG Export Plug-In . SVG Version: 6.00 Build 0)  -->
<!DOCTYPE svg PUBLIC "-//W3C//DTD SVG 1.1//EN" "http://www.w3.org/Graphics/SVG/1.1/DTD/svg11.dtd">
<svg version="1.1" id="Calque_1" xmlns="http://www.w3.org/2000/svg" xmlns:xlink="http://www.w3.org/1999/xlink" x="0px" y="0px"
	 width="75px" height="75px" viewBox="0 0 75 75" enable-background="new 0 0 75 75" xml:space="preserve">
<circle fill="#5E5F5F" cx="37.318" cy="37.5" r="37.5"/>
<g>
	<path fill="#B3BF4A" d="M55.543,15.491H51.3c-0.354-1.557-1.745-2.723-3.408-2.723H45.35c-0.87,0-1.58-0.709-1.58-1.58
		c0-1.928-1.567-3.496-3.496-3.496h-5.911c-1.928,0-3.496,1.568-3.496,3.496c0,0.871-0.708,1.58-1.579,1.58h-2.543
		c-1.662,0-3.054,1.166-3.407,2.723h-4.245c-1.832,0-3.322,1.489-3.322,3.321v41.173c0,1.832,1.49,3.321,3.322,3.321h36.451
		c1.833,0,3.323-1.489,3.323-3.321V18.812C58.866,16.98,57.376,15.491,55.543,15.491z M25.163,16.265c0-0.872,0.709-1.58,1.581-1.58
		h2.543c1.929,0,3.496-1.568,3.496-3.496c0-0.872,0.709-1.579,1.579-1.579h5.911c0.87,0,1.579,0.707,1.579,1.579
		c0,1.928,1.569,3.496,3.497,3.496h2.542c0.873,0,1.582,0.708,1.582,1.58v0.593H25.163V16.265z M56.95,59.985
		c0,0.774-0.631,1.405-1.407,1.405H19.092c-0.775,0-1.405-0.63-1.405-1.405V18.812c0-0.774,0.63-1.405,1.405-1.405h4.156v0.408
		c0,0.529,0.43,0.957,0.958,0.957h26.225c0.529,0,0.958-0.428,0.958-0.957v-0.408h4.156c0.774,0,1.405,0.631,1.405,1.405V59.985
		L56.95,59.985z"/>
	<path fill="#B3BF4A" d="M27.248,30.263H26.19c-0.529,0-0.959,0.429-0.959,0.957c0,0.53,0.43,0.959,0.959,0.959h1.058
		c0.529,0,0.958-0.429,0.958-0.959C28.206,30.691,27.777,30.263,27.248,30.263z"/>
	<path fill="#B3BF4A" d="M47.762,30.263H31.51c-0.529,0-0.958,0.429-0.958,0.957c0,0.53,0.429,0.959,0.958,0.959h16.252
		c0.528,0,0.957-0.429,0.957-0.959C48.719,30.691,48.29,30.263,47.762,30.263z"/>
	<path fill="#B3BF4A" d="M27.248,34.733H26.19c-0.529,0-0.959,0.429-0.959,0.958s0.43,0.959,0.959,0.959h1.058
		c0.529,0,0.958-0.43,0.958-0.959S27.777,34.733,27.248,34.733z"/>
	<path fill="#B3BF4A" d="M47.762,34.733H31.51c-0.529,0-0.958,0.429-0.958,0.958s0.429,0.959,0.958,0.959h16.252
		c0.528,0,0.957-0.43,0.957-0.959S48.29,34.733,47.762,34.733z"/>
	<path fill="#B3BF4A" d="M27.248,39.204H26.19c-0.529,0-0.959,0.429-0.959,0.959c0,0.528,0.43,0.957,0.959,0.957h1.058
		c0.529,0,0.958-0.429,0.958-0.957C28.206,39.633,27.777,39.204,27.248,39.204z"/>
	<path fill="#B3BF4A" d="M47.762,39.204H31.51c-0.529,0-0.958,0.429-0.958,0.959c0,0.528,0.429,0.957,0.958,0.957h16.252
		c0.528,0,0.957-0.429,0.957-0.957C48.719,39.633,48.29,39.204,47.762,39.204z"/>
	<path fill="#B3BF4A" d="M27.248,43.676H26.19c-0.529,0-0.959,0.429-0.959,0.957c0,0.53,0.43,0.959,0.959,0.959h1.058
		c0.529,0,0.958-0.429,0.958-0.959C28.206,44.104,27.777,43.676,27.248,43.676z"/>
	<path fill="#B3BF4A" d="M47.762,43.676H31.51c-0.529,0-0.958,0.429-0.958,0.957c0,0.53,0.429,0.959,0.958,0.959h16.252
		c0.528,0,0.957-0.429,0.957-0.959C48.719,44.104,48.29,43.676,47.762,43.676z"/>
	<path fill="#B3BF4A" d="M27.248,48.146H26.19c-0.529,0-0.959,0.43-0.959,0.959s0.43,0.958,0.959,0.958h1.058
		c0.529,0,0.958-0.429,0.958-0.958S27.777,48.146,27.248,48.146z"/>
	<path fill="#B3BF4A" d="M47.762,48.146H31.51c-0.529,0-0.958,0.43-0.958,0.959s0.429,0.958,0.958,0.958h16.252
		c0.528,0,0.957-0.429,0.957-0.958S48.29,48.146,47.762,48.146z"/>
</g>
</svg>
