<?xml version="1.0" encoding="utf-8"?>
<!-- Generator: Adobe Illustrator 16.0.0, SVG Export Plug-In . SVG Version: 6.00 Build 0)  -->
<!DOCTYPE svg PUBLIC "-//W3C//DTD SVG 1.1//EN" "http://www.w3.org/Graphics/SVG/1.1/DTD/svg11.dtd">
<svg version="1.1" id="Calque_1" xmlns="http://www.w3.org/2000/svg" xmlns:xlink="http://www.w3.org/1999/xlink" x="0px" y="0px"
	 width="20px" height="15px" viewBox="0 0 20 15" enable-background="new 0 0 20 15" xml:space="preserve">
<g>
	<defs>
		<rect id="SVGID_1_" width="20" height="15"/>
	</defs>
	<clipPath id="SVGID_2_">
		<use xlink:href="#SVGID_1_"  overflow="visible"/>
	</clipPath>
	<g clip-path="url(#SVGID_2_)">
		<g>
			<path fill="#CF142B" d="M-2.886-0.085h0.051C0.393,1.838,3.655,3.7,6.857,5.666C6.153,5.623,5.354,5.803,4.753,5.331
				c-2.532-1.528-5.116-2.97-7.64-4.515V-0.085z"/>
		</g>
		<g>
			<path fill="#00247D" d="M-0.028-0.085h8.301c0,1.7,0.009,3.399-0.017,5.099C5.483,3.323,2.719,1.632-0.028-0.085z"/>
		</g>
		<g>
			<path fill="#CF142B" d="M8.875-0.085c0.008,2.12,0,4.23,0,6.35H-2.889v2.579H8.875v6.039v0.311h2.243
				c-0.02-2.094-0.008-4.238-0.008-6.35h11.756V6.265H11.109c0-2.12-0.01-4.23,0-6.35H8.875z"/>
		</g>
		<g>
			<path fill="#00247D" d="M11.793-0.085h8.215c-2.721,1.717-5.477,3.382-8.215,5.073C11.793,3.296,11.793,1.605,11.793-0.085z"/>
		</g>
		<g>
			<path fill="#CF142B" d="M21.115-0.085h1.75v0.035c-2.41,1.459-4.807,2.953-7.219,4.421c-0.652,0.403-1.277,0.858-1.973,1.193
				c-0.602,0.121-1.229,0.077-1.846,0.103C14.9,3.708,18.033,1.846,21.115-0.085z"/>
		</g>
		<g>
			<path fill="#00247D" d="M-2.886,1.391c2.395,1.45,4.833,2.815,7.228,4.266c-2.404,0.018-4.815,0-7.228,0.009V1.391z"/>
		</g>
		<g>
			<path fill="#00247D" d="M15.717,5.649c2.369-1.442,4.799-2.773,7.148-4.232v4.249C20.48,5.657,18.102,5.684,15.717,5.649z"/>
		</g>
		<g>
			<path fill="#00247D" d="M8.17,15.096h-8.216c2.722-1.717,5.477-3.383,8.216-5.072C8.17,11.713,8.17,13.404,8.17,15.096z"/>
		</g>
		<g>
			<path fill="#CF142B" d="M-1.153,15.096h-1.751v-0.035c2.412-1.457,4.807-2.951,7.219-4.42c0.652-0.402,1.279-0.857,1.974-1.193
				c0.601-0.119,1.228-0.076,1.846-0.104C5.062,11.303,1.929,13.164-1.153,15.096z"/>
		</g>
		<g>
			<path fill="#00247D" d="M4.247,9.361c-2.369,1.443-4.798,2.773-7.15,4.232v-4.25C-0.518,9.354,1.86,9.328,4.247,9.361z"/>
		</g>
		<g>
			<path fill="#CF142B" d="M22.9,15.166H22.85c-3.227-1.924-6.49-3.785-9.691-5.752c0.703,0.043,1.502-0.137,2.102,0.336
				c2.533,1.527,5.117,2.969,7.641,4.516V15.166z"/>
		</g>
		<g>
			<path fill="#00247D" d="M20.043,15.166h-8.301c0-1.699-0.01-3.398,0.018-5.1C14.531,11.758,17.297,13.449,20.043,15.166z"/>
		</g>
		<g>
			<path fill="#00247D" d="M22.9,13.689c-2.395-1.451-4.832-2.814-7.229-4.268c2.404-0.016,4.818,0,7.229-0.008V13.689z"/>
		</g>
	</g>
</g>
</svg>
