<?xml version="1.0" encoding="utf-8"?>
<!-- Generator: Adobe Illustrator 16.0.0, SVG Export Plug-In . SVG Version: 6.00 Build 0)  -->
<!DOCTYPE svg PUBLIC "-//W3C//DTD SVG 1.1//EN" "http://www.w3.org/Graphics/SVG/1.1/DTD/svg11.dtd">
<svg version="1.1" id="Calque_1" xmlns="http://www.w3.org/2000/svg" xmlns:xlink="http://www.w3.org/1999/xlink" x="0px" y="0px"
	 width="37px" height="37px" viewBox="0 0 37 37" enable-background="new 0 0 37 37" xml:space="preserve">
<g>
	<rect x="13.65" y="16.03" fill="#FFFFFF" width="2.44" height="7.321"/>
</g>
<path fill="#FFFFFF" d="M14.577,14.778c0.095,0.023,0.19,0.039,0.293,0.039c0.103,0,0.198-0.016,0.292-0.039H14.577z M14.577,14.778
	c0.095,0.023,0.19,0.039,0.293,0.039c0.103,0,0.198-0.016,0.292-0.039H14.577z M14.577,14.778c0.095,0.023,0.19,0.039,0.293,0.039
	c0.103,0,0.198-0.016,0.292-0.039H14.577z M14.577,14.778c0.095,0.023,0.19,0.039,0.293,0.039c0.103,0,0.198-0.016,0.292-0.039
	H14.577z M14.577,14.778c0.095,0.023,0.19,0.039,0.293,0.039c0.103,0,0.198-0.016,0.292-0.039H14.577z M14.577,14.778
	c0.095,0.023,0.19,0.039,0.293,0.039c0.103,0,0.198-0.016,0.292-0.039H14.577z M14.577,14.778c0.095,0.023,0.19,0.039,0.293,0.039
	c0.103,0,0.198-0.016,0.292-0.039H14.577z M14.577,14.778c0.095,0.023,0.19,0.039,0.293,0.039c0.103,0,0.198-0.016,0.292-0.039
	H14.577z M14.577,14.778c0.095,0.023,0.19,0.039,0.293,0.039c0.103,0,0.198-0.016,0.292-0.039H14.577z M14.577,14.778
	c0.095,0.023,0.19,0.039,0.293,0.039c0.103,0,0.198-0.016,0.292-0.039H14.577z M14.577,14.778c0.095,0.023,0.19,0.039,0.293,0.039
	c0.103,0,0.198-0.016,0.292-0.039H14.577z M18.53,3.837c-8.081,0-14.633,6.552-14.633,14.633c0,8.081,6.552,14.633,14.633,14.633
	c8.082,0,14.633-6.553,14.633-14.633C33.163,10.389,26.611,3.837,18.53,3.837z M18.53,30.663c-6.726,0-12.192-5.467-12.192-12.193
	c0-6.727,5.466-12.193,12.192-12.193s12.193,5.466,12.193,12.193C30.723,25.196,25.256,30.663,18.53,30.663z M14.87,14.817
	c0.103,0,0.198-0.016,0.292-0.039h-0.586C14.672,14.802,14.767,14.817,14.87,14.817z M14.577,14.778
	c0.095,0.023,0.19,0.039,0.293,0.039c0.103,0,0.198-0.016,0.292-0.039H14.577z M14.577,14.778c0.095,0.023,0.19,0.039,0.293,0.039
	c0.103,0,0.198-0.016,0.292-0.039H14.577z M14.577,14.778c0.095,0.023,0.19,0.039,0.293,0.039c0.103,0,0.198-0.016,0.292-0.039
	H14.577z M14.577,14.778c0.095,0.023,0.19,0.039,0.293,0.039c0.103,0,0.198-0.016,0.292-0.039H14.577z M14.577,14.778
	c0.095,0.023,0.19,0.039,0.293,0.039c0.103,0,0.198-0.016,0.292-0.039H14.577z M14.577,14.778c0.095,0.023,0.19,0.039,0.293,0.039
	c0.103,0,0.198-0.016,0.292-0.039H14.577z M14.577,14.778c0.095,0.023,0.19,0.039,0.293,0.039c0.103,0,0.198-0.016,0.292-0.039
	H14.577z M14.577,14.778c0.095,0.023,0.19,0.039,0.293,0.039c0.103,0,0.198-0.016,0.292-0.039H14.577z M14.577,14.778
	c0.095,0.023,0.19,0.039,0.293,0.039c0.103,0,0.198-0.016,0.292-0.039H14.577z"/>
<path fill="#FFFFFF" d="M24.631,19.254v4.097h-2.44v-3.494c0-1.672-1.308-2.021-2.005-1.268c-0.261,0.277-0.436,0.705-0.436,1.268
	v3.494h-2.44V16.03h2.44v1.331c0.183-0.333,0.443-0.618,0.752-0.832c0.373-0.261,0.824-0.436,1.276-0.483
	c0.436-0.063,0.888-0.008,1.299,0.182C23.949,16.608,24.631,17.559,24.631,19.254z"/>
<path fill="#FFFFFF" d="M16.09,13.59c0,0.578-0.396,1.062-0.927,1.188h-0.586c-0.531-0.127-0.927-0.61-0.927-1.188
	c0-0.04,0-0.08,0.008-0.111c0.056-0.625,0.578-1.117,1.212-1.117c0.055,0,0.103,0,0.15,0.016
	C15.622,12.449,16.09,12.972,16.09,13.59z"/>
</svg>
