<?xml version="1.0" encoding="utf-8"?>
<!-- Generator: Adobe Illustrator 16.0.0, SVG Export Plug-In . SVG Version: 6.00 Build 0)  -->
<!DOCTYPE svg PUBLIC "-//W3C//DTD SVG 1.1//EN" "http://www.w3.org/Graphics/SVG/1.1/DTD/svg11.dtd">
<svg version="1.1" id="Calque_1" xmlns="http://www.w3.org/2000/svg" xmlns:xlink="http://www.w3.org/1999/xlink" x="0px" y="0px"
	 width="35px" height="35px" viewBox="0 0 35 35" enable-background="new 0 0 35 35" xml:space="preserve">
<circle fill="#989898" cx="17.5" cy="17.5" r="17.5"/>
<g>
	<path fill="#FFFFFF" d="M19.467,20.172c0-1.092-0.896-1.986-1.989-1.986c-1.092,0-1.988,0.895-1.988,1.986
		c0,0.896,0.616,1.682,1.428,1.904v1.82c0,0.195,0.252,0.363,0.561,0.363s0.561-0.168,0.561-0.363v-1.82
		C18.879,21.824,19.467,21.068,19.467,20.172z M17.478,21.041c-0.477,0-0.868-0.393-0.868-0.869c0-0.475,0.392-0.867,0.868-0.867
		s0.868,0.393,0.868,0.867C18.346,20.648,17.955,21.041,17.478,21.041z"/>
	<path fill="#FFFFFF" d="M25.066,13.424h-1.596H22.35h-9.744V9.449c0-2.688,2.184-4.872,4.872-4.872S22.35,6.76,22.35,9.449v0.56
		c0,0.308,0.252,0.56,0.561,0.56s0.561-0.252,0.561-0.56v-0.56c0-3.304-2.688-5.992-5.993-5.992c-3.304,0-5.992,2.688-5.992,5.992
		v3.976H9.89c-1.036,0-1.848,0.84-1.848,1.848v11.452c0,1.035,0.84,1.848,1.848,1.848h15.176c1.035,0,1.848-0.84,1.848-1.848V15.3
		C26.941,14.265,26.102,13.424,25.066,13.424z M25.822,26.752c0,0.42-0.336,0.729-0.729,0.729H9.89c-0.42,0-0.728-0.336-0.728-0.729
		V15.3c0-0.42,0.336-0.728,0.728-0.728h15.176c0.42,0,0.729,0.336,0.729,0.728v11.452H25.822z"/>
</g>
</svg>
