<?xml version="1.0" encoding="utf-8"?>
<!-- Generator: Adobe Illustrator 14.0.0, SVG Export Plug-In . SVG Version: 6.00 Build 43363)  -->
<!DOCTYPE svg PUBLIC "-//W3C//DTD SVG 1.1//EN" "http://www.w3.org/Graphics/SVG/1.1/DTD/svg11.dtd">
<svg version="1.1" id="Calque_1" xmlns="http://www.w3.org/2000/svg" xmlns:xlink="http://www.w3.org/1999/xlink" x="0px" y="0px"
	 width="274.954px" height="42.413px" viewBox="0 0 274.954 42.413" enable-background="new 0 0 274.954 42.413"
	 xml:space="preserve">
<path d="M34.44,21.117h0.079l3.121,9.36h-6.358L34.44,21.117z M30.346,12.03l-11.31,29.408h8.112l2.027-5.111h10.531l1.911,5.111
	h8.153L38.693,12.03H30.346z"/>
<g>
	<defs>
		<rect id="SVGID_1_" y="0" width="274.954" height="42.412"/>
	</defs>
	<clipPath id="SVGID_2_">
		<use xlink:href="#SVGID_1_"  overflow="visible"/>
	</clipPath>
	<path clip-path="url(#SVGID_2_)" d="M68.295,19.596c-1.405-1.169-3.198-1.948-5.072-1.948c-1.403,0-3.274,0.818-3.274,2.457
		c0,1.714,2.066,2.378,3.392,2.807l1.951,0.585c4.095,1.21,7.254,3.275,7.254,8.035c0,2.924-0.702,5.927-3.043,7.918
		c-2.3,1.949-5.383,2.77-8.345,2.77c-3.706,0-7.334-1.251-10.337-3.354l3.276-6.162c1.913,1.675,4.174,3.041,6.788,3.041
		c1.793,0,3.704-0.896,3.704-2.964c0-2.146-3.003-2.887-4.64-3.354c-4.798-1.366-7.958-2.612-7.958-8.308
		c0-5.967,4.251-9.868,10.142-9.868c2.964,0,6.591,0.936,9.204,2.419L68.295,19.596z"/>
	<path clip-path="url(#SVGID_2_)" d="M97.197,21.897c-1.561-2.106-4.096-3.236-6.709-3.236c-4.681,0-7.84,3.587-7.84,8.152
		c0,4.641,3.197,7.993,7.955,7.993c2.498,0,4.993-1.208,6.594-3.119v9.165c-2.536,0.781-4.371,1.368-6.749,1.368
		c-4.094,0-7.996-1.562-11.037-4.331c-3.237-2.925-4.721-6.748-4.721-11.117c0-4.017,1.524-7.878,4.33-10.764
		c2.887-2.964,7.061-4.759,11.196-4.759c2.456,0,4.718,0.546,6.981,1.483V21.897z"/>
	<path clip-path="url(#SVGID_2_)" d="M116.698,18.466c4.563,0,8.305,3.704,8.305,7.761c0,5.07-3.742,8.776-8.305,8.776
		c-4.565,0-8.307-3.706-8.307-8.776C108.391,22.17,112.133,18.466,116.698,18.466 M116.698,11.054
		c-8.465,0-16.266,6.241-16.266,15.135c0,9.515,6.827,16.223,16.266,16.223s16.264-6.708,16.264-16.223
		C132.962,17.295,125.161,11.054,116.698,11.054"/>
	<polygon clip-path="url(#SVGID_2_)" points="139.748,12.03 147.274,12.03 153.243,27.749 159.56,12.03 167.168,12.03 
		171.612,41.439 163.969,41.439 161.823,24.511 161.745,24.511 154.685,41.439 151.642,41.439 144.896,24.511 144.818,24.511 
		142.36,41.439 134.756,41.439 	"/>
	<polygon clip-path="url(#SVGID_2_)" points="182.494,18.504 182.494,23.418 191.113,23.418 191.113,29.893 182.494,29.893 
		182.494,34.965 191.582,34.965 191.582,41.439 174.851,41.439 174.851,12.031 191.582,12.031 191.582,18.504 	"/>
	<polygon clip-path="url(#SVGID_2_)" points="208.002,41.439 200.358,41.439 200.358,18.504 194.04,18.504 194.04,12.031 
		214.318,12.031 214.318,18.504 208.002,18.504 	"/>
	<path clip-path="url(#SVGID_2_)" d="M230.71,30.478h-6.36l3.161-9.36h0.078L230.71,30.478z M232.776,36.327l1.911,5.112h8.151
		L231.762,12.03h-8.348l-11.311,29.409h8.113l2.029-5.112H232.776z"/>
	<polygon clip-path="url(#SVGID_2_)" points="252.862,34.964 262.026,34.964 262.026,41.439 245.217,41.439 245.217,12.031 
		252.862,12.031 	"/>
	<path clip-path="url(#SVGID_2_)" d="M262.028,18.327c0-0.892,0.17-1.729,0.512-2.511c0.342-0.782,0.805-1.465,1.39-2.05
		s1.269-1.048,2.05-1.39c0.782-0.342,1.619-0.513,2.512-0.513c0.892,0,1.729,0.171,2.51,0.513c0.782,0.342,1.466,0.805,2.05,1.39
		c0.585,0.585,1.049,1.268,1.391,2.05c0.342,0.782,0.513,1.619,0.513,2.511s-0.171,1.729-0.513,2.511
		c-0.342,0.781-0.806,1.465-1.391,2.05c-0.584,0.585-1.268,1.048-2.05,1.39c-0.781,0.342-1.618,0.513-2.51,0.513
		c-0.893,0-1.729-0.171-2.512-0.513c-0.781-0.342-1.465-0.805-2.05-1.39s-1.048-1.269-1.39-2.05
		C262.198,20.056,262.028,19.219,262.028,18.327 M263.8,18.327c0,0.672,0.121,1.306,0.365,1.903
		c0.243,0.596,0.578,1.115,1.007,1.554c0.429,0.44,0.927,0.791,1.495,1.052c0.567,0.26,1.175,0.391,1.824,0.391
		c0.648,0,1.256-0.131,1.823-0.391c0.568-0.261,1.066-0.611,1.494-1.052c0.43-0.439,0.766-0.958,1.008-1.554
		c0.243-0.597,0.365-1.231,0.365-1.903c0-0.672-0.122-1.306-0.365-1.903c-0.242-0.596-0.578-1.114-1.008-1.555
		c-0.428-0.44-0.926-0.79-1.494-1.051c-0.567-0.261-1.175-0.391-1.823-0.391c-0.649,0-1.257,0.13-1.824,0.391
		c-0.568,0.261-1.066,0.611-1.495,1.051c-0.429,0.441-0.764,0.959-1.007,1.555C263.921,17.021,263.8,17.655,263.8,18.327
		 M266.006,14.869h2.398c0.185,0,0.439,0.012,0.764,0.035c0.325,0.023,0.644,0.104,0.956,0.243c0.312,0.139,0.585,0.356,0.816,0.652
		c0.231,0.295,0.348,0.715,0.348,1.26c0,0.347-0.046,0.634-0.14,0.86c-0.093,0.225-0.211,0.411-0.355,0.556
		c-0.146,0.145-0.313,0.255-0.504,0.33c-0.191,0.075-0.385,0.124-0.582,0.147l1.738,2.693h-1.825l-1.546-2.606h-0.296v2.606h-1.772
		V14.869z M267.761,17.684h0.713c0.104,0,0.217-0.006,0.338-0.017c0.122-0.012,0.235-0.041,0.339-0.087
		c0.104-0.046,0.191-0.119,0.262-0.217c0.068-0.099,0.104-0.235,0.104-0.409c0-0.174-0.035-0.309-0.104-0.408
		c-0.07-0.098-0.157-0.171-0.262-0.217c-0.104-0.046-0.217-0.075-0.339-0.087c-0.121-0.011-0.233-0.017-0.338-0.017h-0.713V17.684z"
		/>
	<path clip-path="url(#SVGID_2_)" fill="#E42618" d="M44.436,0h-5.743C15.394,0-0.981,16.912,11.708,41.431
		c-1.651-3.817-2.181-7.107-2.181-11.101c0-14.688,10.93-24.207,29.166-24.207h5.743h219.8V0H44.436z"/>
	<path clip-path="url(#SVGID_2_)" fill="#E42618" d="M9.186,41.439C-1.299,21.956,5.495,7.139,17.354,0H5.036
		C-0.66,8.112-4.073,21.615,9.186,41.439"/>
</g>
</svg>
