<?xml version="1.0" encoding="utf-8"?>
<!-- Generator: Adobe Illustrator 16.0.0, SVG Export Plug-In . SVG Version: 6.00 Build 0)  -->
<!DOCTYPE svg PUBLIC "-//W3C//DTD SVG 1.1//EN" "http://www.w3.org/Graphics/SVG/1.1/DTD/svg11.dtd">
<svg version="1.1" id="Calque_1" xmlns="http://www.w3.org/2000/svg" xmlns:xlink="http://www.w3.org/1999/xlink" x="0px" y="0px"
	 width="35px" height="35px" viewBox="0 0 35 35" enable-background="new 0 0 35 35" xml:space="preserve">
<circle fill="#989898" cx="17.5" cy="17.5" r="17.5"/>
<g>
	<path fill="#FFFFFF" d="M27.213,24.711l-6.742-6.744c0.688-1.196,1.085-2.581,1.085-4.057c0-4.497-3.658-8.156-8.155-8.156
		c-4.496,0-8.155,3.659-8.155,8.156c0,4.496,3.659,8.155,8.155,8.155c1.429,0,2.773-0.37,3.939-1.019l6.77,6.77
		c0.428,0.428,0.989,0.642,1.551,0.642c0.562,0,1.124-0.214,1.552-0.642C28.068,26.958,28.068,25.566,27.213,24.711z M6.554,13.91
		c0-3.775,3.072-6.848,6.847-6.848c3.775,0,6.848,3.072,6.848,6.848s-3.073,6.847-6.848,6.847
		C9.625,20.757,6.554,17.686,6.554,13.91z M26.289,26.89c-0.346,0.346-0.91,0.346-1.255,0l-6.584-6.583
		c0.465-0.368,0.891-0.784,1.266-1.244l6.573,6.575C26.635,25.982,26.635,26.545,26.289,26.89z"/>
</g>
</svg>
