<?xml version="1.0" encoding="utf-8"?>
<!-- Generator: Adobe Illustrator 16.0.0, SVG Export Plug-In . SVG Version: 6.00 Build 0)  -->
<!DOCTYPE svg PUBLIC "-//W3C//DTD SVG 1.1//EN" "http://www.w3.org/Graphics/SVG/1.1/DTD/svg11.dtd">
<svg version="1.1" id="Calque_1" xmlns="http://www.w3.org/2000/svg" xmlns:xlink="http://www.w3.org/1999/xlink" x="0px" y="0px"
	 width="35.072px" height="35.126px" viewBox="0 0 35.072 35.126" enable-background="new 0 0 35.072 35.126" xml:space="preserve">
<g>
	<g>
		<g>
			<path fill="#AE3E28" d="M27.992,6.004c-2.222,0-4.023,1.803-4.023,4.025c0,2.223,1.801,4.025,4.023,4.025
				c2.225,0,4.025-1.803,4.025-4.025C32.017,7.807,30.216,6.004,27.992,6.004z M27.992,12.788c-1.523,0-2.759-1.235-2.759-2.76
				c0-1.524,1.235-2.761,2.759-2.761c1.525,0,2.762,1.237,2.762,2.761C30.753,11.553,29.517,12.788,27.992,12.788z"/>
		</g>
		<g>
			<path fill="#AE3E28" d="M33.508,9.905L33.508,9.905l1.579-1.192l-0.186-0.535l-0.155-0.442l-1.876-0.235l-0.158-0.279
				l0.792-1.812l-0.427-0.376l-0.353-0.309L30.978,5.44l-0.389-0.222l-0.257-1.962l-0.558-0.103L29.316,3.07l-1.134,1.514h-0.318
				L26.679,3L26.14,3.186l-0.442,0.153l-0.239,1.868c-0.1,0.05-0.199,0.105-0.293,0.162l-1.811-0.792l-0.376,0.427l-0.31,0.352
				l0.707,1.728c-0.1,0.154-0.234,0.307-0.234,0.307L21.18,7.646l-0.186,1.021l1.49,1.113c-0.007,0.11-0.017,0.419-0.017,0.419
				l-1.584,1.186l0.339,0.979l1.845,0.238c0.078,0.151,0.206,0.396,0.206,0.396L22.48,14.81l0.428,0.376l0.353,0.31l1.748-0.715
				c0,0,0.194,0.096,0.33,0.17l0.253,1.953l0.559,0.102l0.461,0.084l1.096-1.466c0.094,0.004,0.398,0.004,0.453,0.002l1.147,1.534
				l0.54-0.186l0.44-0.154l0.232-1.803c0.182-0.094,0.362-0.146,0.362-0.146l1.811,0.793l0.376-0.428l0.311-0.351l-0.718-1.749
				l0.223-0.389l1.962-0.255l0.103-0.559l0.086-0.462l-1.517-1.131C33.518,10.342,33.511,9.973,33.508,9.905z M27.972,14.658
				c-2.556,0-4.627-2.073-4.627-4.629c0-2.557,2.071-4.629,4.627-4.629c2.557,0,4.629,2.073,4.629,4.629
				S30.529,14.658,27.972,14.658z"/>
		</g>
	</g>
	<g>
		<g>
			<path fill="#AE3E28" d="M11.713,13.502c-3.661,0-6.626,2.967-6.626,6.626c0,3.659,2.966,6.627,6.626,6.627
				c3.659,0,6.626-2.968,6.626-6.627C18.339,16.469,15.372,13.502,11.713,13.502z M11.713,25.245c-2.827,0-5.117-2.292-5.117-5.116
				c0-2.825,2.29-5.117,5.117-5.117c2.825,0,5.116,2.292,5.116,5.117C16.83,22.953,14.538,25.245,11.713,25.245z"/>
		</g>
		<g>
			<path fill="#AE3E28" d="M21.518,20.371l1.939-1.078l-0.233-1.17l-2.042-0.55c-0.109-0.414-0.248-0.814-0.41-1.205l1.352-1.791
				l-0.688-0.976l-2.124,0.33c-0.236-0.29-0.491-0.569-0.76-0.831l0.542-2.203l-1.018-0.624l-1.842,1.151
				c-0.407-0.21-0.83-0.393-1.266-0.548l0.162,0.034l-0.4-2.244l-1.186-0.159l-1.218,1.806l0.206,0.045
				c-0.269-0.022-0.542-0.035-0.816-0.035c-0.206,0-0.41,0.007-0.611,0.02L9.875,8.491L8.728,8.815l-0.397,2.107
				c-0.369,0.135-0.727,0.293-1.075,0.469L5.37,10.188l-0.918,0.764l0.492,2.08c-0.275,0.263-0.533,0.541-0.776,0.833l-2.228-0.369
				l-0.544,1.065l1.286,1.738c-0.192,0.449-0.348,0.916-0.472,1.396l-2.184,0.65L0,19.54l1.914,0.999
				c0.017,0.414,0.061,0.822,0.126,1.221l-1.73,1.48l0.463,1.103l2.148,0.134c0.158,0.32,0.331,0.629,0.524,0.929l-0.052-0.059
				l-1.01,2.045l0.859,0.831l2.011-0.713c0.317,0.277,0.652,0.533,1.003,0.77l-0.09,2.234l1.121,0.41l1.504-1.43
				c0.558,0.176,1.136,0.301,1.73,0.371l0.912,2.037l1.188-0.133l0.718-1.967c0.473-0.08,0.935-0.191,1.384-0.336l-0.172,0.082
				l1.696,1.525l1.031-0.604l-0.146-2.164c0.31-0.207,0.604-0.43,0.89-0.666l2.153,0.73l0.71-0.96l-0.973-1.901
				c0.231-0.348,0.439-0.714,0.624-1.093l2.238-0.203l0.258-1.166l-1.642-1.328C21.461,21.277,21.505,20.828,21.518,20.371z
				 M11.713,27.815c-4.247,0-7.687-3.441-7.687-7.687c0-4.247,3.44-7.687,7.687-7.687c4.245,0,7.687,3.44,7.687,7.687
				C19.4,24.375,15.958,27.815,11.713,27.815z"/>
		</g>
	</g>
</g>
</svg>
