<?xml version="1.0" encoding="utf-8"?>
<!-- Generator: Adobe Illustrator 16.0.0, SVG Export Plug-In . SVG Version: 6.00 Build 0)  -->
<!DOCTYPE svg PUBLIC "-//W3C//DTD SVG 1.1//EN" "http://www.w3.org/Graphics/SVG/1.1/DTD/svg11.dtd">
<svg version="1.1" id="Calque_1" xmlns="http://www.w3.org/2000/svg" xmlns:xlink="http://www.w3.org/1999/xlink" x="0px" y="0px"
	 width="80px" height="60.636px" viewBox="0 0 80 60.636" enable-background="new 0 0 80 60.636" xml:space="preserve">
<g>
	<g>
		<g>
			<path fill="#FFFFFF" d="M61.082,6.158c-4.558,0-8.25,3.695-8.25,8.248c0,4.558,3.694,8.25,8.25,8.25
				c4.557,0,8.249-3.694,8.249-8.25C69.331,9.851,65.639,6.158,61.082,6.158z M61.082,20.06c-3.126,0-5.657-2.53-5.657-5.656
				c0-3.124,2.531-5.656,5.657-5.656c3.124,0,5.655,2.533,5.655,5.656C66.737,17.529,64.206,20.06,61.082,20.06z"/>
		</g>
		<g>
			<path fill="#FFFFFF" d="M72.385,14.151L72.385,14.151l3.237-2.438l-0.381-1.101L74.92,9.706l-3.842-0.482l-0.323-0.57
				l1.625-3.716l-0.876-0.77L70.78,3.538l-3.584,1.466L66.4,4.549l-0.522-4.021l-1.144-0.211L63.79,0.144l-2.322,3.104l-0.652,0
				L58.386,0l-1.104,0.381l-0.906,0.314l-0.489,3.827c-0.206,0.103-0.407,0.214-0.603,0.332l-3.712-1.621l-0.767,0.874L50.169,4.83
				l1.452,3.542c-0.207,0.314-0.484,0.629-0.484,0.629l-4.018,0.523l-0.383,2.091l3.054,2.28c-0.017,0.225-0.033,0.859-0.033,0.859
				l-3.247,2.431l0.693,2.009l3.781,0.487c0.159,0.31,0.423,0.81,0.423,0.81l-1.625,3.716l0.877,0.769l0.722,0.635l3.583-1.467
				c0,0,0.396,0.196,0.674,0.349l0.521,4.004l1.142,0.208l0.944,0.173l2.249-3.004c0.195,0.011,0.818,0.011,0.93,0.007l2.351,3.142
				l1.104-0.379l0.906-0.316l0.478-3.693c0.372-0.192,0.737-0.3,0.737-0.3l3.716,1.625l0.769-0.877l0.636-0.721l-1.468-3.584
				l0.454-0.796l4.023-0.522l0.211-1.146l0.171-0.946l-3.104-2.317C72.406,15.046,72.39,14.291,72.385,14.151z M61.04,23.893
				c-5.241,0-9.485-4.248-9.485-9.489c0-5.238,4.244-9.485,9.485-9.485c5.237,0,9.49,4.247,9.49,9.485
				C70.53,19.644,66.279,23.893,61.04,23.893z"/>
		</g>
	</g>
	<g>
		<g>
			<path fill="#FFFFFF" d="M27.717,21.523c-7.502,0-13.581,6.081-13.581,13.579c0,7.501,6.079,13.581,13.581,13.581
				c7.5,0,13.582-6.084,13.582-13.581C41.299,27.604,35.217,21.523,27.717,21.523z M27.717,45.59
				c-5.792,0-10.487-4.697-10.487-10.487c0-5.787,4.695-10.484,10.487-10.484c5.789,0,10.484,4.697,10.484,10.484
				C38.201,40.895,33.506,45.59,27.717,45.59z"/>
		</g>
		<g>
			<path fill="#FFFFFF" d="M47.811,35.599l3.974-2.206l-0.477-2.401l-4.186-1.129c-0.223-0.845-0.505-1.667-0.84-2.467l2.771-3.671
				l-1.409-2l-4.354,0.676c-0.488-0.597-1.006-1.165-1.558-1.702l1.109-4.516l-2.087-1.279l-3.776,2.36
				c-0.834-0.433-1.7-0.806-2.594-1.124l0.332,0.07l-0.822-4.6l-2.427-0.324l-2.497,3.7l0.423,0.093
				c-0.553-0.047-1.113-0.07-1.677-0.07c-0.419,0-0.839,0.014-1.252,0.04l-2.513-3.795l-2.356,0.665l-0.812,4.318
				c-0.756,0.278-1.491,0.6-2.203,0.962l-3.863-2.465l-1.884,1.565l1.01,4.262c-0.564,0.538-1.094,1.108-1.591,1.707l-4.566-0.755
				L6.57,23.694l2.635,3.562c-0.391,0.92-0.714,1.878-0.967,2.862l-4.477,1.333l-0.05,2.446l3.923,2.048
				c0.033,0.849,0.122,1.685,0.258,2.501L4.346,41.48l0.95,2.26l4.4,0.273c0.323,0.656,0.682,1.293,1.074,1.904l-0.105-0.119
				l-2.071,4.189l1.761,1.703l4.122-1.463c0.65,0.568,1.338,1.094,2.055,1.58l-0.186,4.58l2.3,0.842l3.084-2.93
				c1.142,0.357,2.328,0.613,3.546,0.762l1.868,4.174l2.435-0.271l1.472-4.033c0.971-0.166,1.918-0.391,2.837-0.688l-0.351,0.168
				l3.475,3.127l2.114-1.236l-0.301-4.438c0.634-0.422,1.24-0.879,1.825-1.365l4.412,1.496l1.453-1.967l-1.993-3.893
				c0.473-0.715,0.9-1.469,1.275-2.242l4.588-0.416l0.528-2.389l-3.363-2.721C47.696,37.46,47.786,36.539,47.811,35.599z
				 M27.717,50.857c-8.703,0-15.754-7.053-15.754-15.755c0-8.7,7.052-15.751,15.754-15.751c8.699,0,15.754,7.053,15.754,15.751
				C43.471,43.805,36.416,50.857,27.717,50.857z"/>
		</g>
	</g>
</g>
</svg>
