<?xml version="1.0" encoding="utf-8"?>
<!-- Generator: Adobe Illustrator 16.0.0, SVG Export Plug-In . SVG Version: 6.00 Build 0)  -->
<!DOCTYPE svg PUBLIC "-//W3C//DTD SVG 1.1//EN" "http://www.w3.org/Graphics/SVG/1.1/DTD/svg11.dtd">
<svg version="1.1" id="Calque_1" xmlns="http://www.w3.org/2000/svg" xmlns:xlink="http://www.w3.org/1999/xlink" x="0px" y="0px"
	 width="80px" height="60.636px" viewBox="0 0 80 60.636" enable-background="new 0 0 80 60.636" xml:space="preserve">
<path fill="#FFFFFF" d="M29.122,34.538h10.292v10.158H27.317L29.122,34.538z M39.736,25.114l3.668,2.312h-3.99v4.063h-9.098
	L39.736,25.114z M31.805,19.942l6.294,4.196l-8.006,5.31L31.805,19.942z M41.379,24.019l6.431-4.325l1.404,7.733H46.68
	L41.379,24.019z M32.155,17.993l0.537-2.98l7.014-3.596l7.248,3.711l0.504,2.805L39.74,23.05L32.155,17.993z M33.877,8.429
	l3.837,1.964l-4.618,2.366L33.877,8.429z M41.702,10.393l4.025-2.062l0.819,4.545L41.702,10.393z M34.213,6.677l0.494-2.614h10.209
	l0.475,2.516l-5.685,2.913L34.213,6.677z M30.271,0v4.063h2.639L25.49,44.695H13.003v5.079h4.063v10.158h12.19V49.774h22.348v10.158
	h12.189V49.774h4.063v-5.079h-4.063V27.427H51.041L46.715,4.063h2.857V0H30.271z"/>
</svg>
