<?xml version="1.0" encoding="utf-8"?>
<!-- Generator: Adobe Illustrator 16.0.0, SVG Export Plug-In . SVG Version: 6.00 Build 0)  -->
<!DOCTYPE svg PUBLIC "-//W3C//DTD SVG 1.1//EN" "http://www.w3.org/Graphics/SVG/1.1/DTD/svg11.dtd">
<svg version="1.1" id="Calque_1" xmlns="http://www.w3.org/2000/svg" xmlns:xlink="http://www.w3.org/1999/xlink" x="0px" y="0px"
	 width="35.072px" height="35.126px" viewBox="0 0 35.072 35.126" enable-background="new 0 0 35.072 35.126" xml:space="preserve">
<path fill="#03888E" d="M10.233,20.218h6.858v5.876H9.074L10.233,20.218z M17.044,14.6l2.353,1.431h-2.305v2.226h-6.093L17.044,14.6
	z M11.954,11.501l4.039,2.458l-5.138,3.108L11.954,11.501z M18.098,13.962l4.127-2.496l0.901,4.565h-1.627L18.098,13.962z
	 M12.179,10.359l0.345-1.745l4.501-2.105l4.649,2.174l0.324,1.643l-4.952,2.997L12.179,10.359z M13.284,4.759l2.462,1.15
	l-2.963,1.386L13.284,4.759z M18.307,5.909l2.582-1.208l0.525,2.662L18.307,5.909z M13.5,3.663l0.317-1.602h6.552l0.304,1.544
	l-3.647,1.706L13.5,3.663z M10.975,0v1.959h1.689L7.902,26.094H0v3.028h2.307V35h8.336v-5.878h13.712V35h8.335v-5.878H35v-3.028
	h-2.309V16.031h-8.394L21.522,1.96h1.556V0H10.975z"/>
</svg>
