<?xml version="1.0" encoding="utf-8"?>
<!-- Generator: Adobe Illustrator 16.0.0, SVG Export Plug-In . SVG Version: 6.00 Build 0)  -->
<!DOCTYPE svg PUBLIC "-//W3C//DTD SVG 1.1//EN" "http://www.w3.org/Graphics/SVG/1.1/DTD/svg11.dtd">
<svg version="1.1" id="Calque_1" xmlns="http://www.w3.org/2000/svg" xmlns:xlink="http://www.w3.org/1999/xlink" x="0px" y="0px"
	 width="35px" height="35px" viewBox="0 0 35 35" enable-background="new 0 0 35 35" xml:space="preserve">
<circle fill="#989898" cx="17.5" cy="17.5" r="17.5"/>
<g>
	<path fill="#FFFFFF" d="M27.933,27.255c-0.859,0.859-2.125,1.492-3.888,1.13c-0.181-0.045-4.16-1.085-8.839-5.764l0,0
		c-0.904-0.905-2.736-2.735-2.736-2.735c-4.679-4.68-5.742-8.637-5.811-8.795C5.981,8.016,8.4,6.366,9.78,5.937
		c0.067-0.022,0.158-0.023,0.249-0.023c0.046,0,4.341,0.949,4.86,5.042c0,0.135-0.045,0.271-0.135,0.361
		c-0.792,0.882-1.719,1.989-1.944,2.441c0.474,0.611,2.057,2.6,2.532,3.075c0.023,0.022,2.013,2.147,2.849,2.849
		c0.52,0.43,2.533,2.034,3.12,2.532c0.428-0.249,1.537-1.131,2.396-1.944c0.091-0.091,0.226-0.136,0.386-0.112
		c4.113,0.495,5.063,4.792,5.063,4.837c0.021,0.067,0.021,0.157-0.022,0.249C28.974,25.808,28.589,26.6,27.933,27.255z
		 M15.861,21.966c4.476,4.477,8.365,5.516,8.409,5.516c2.668,0.542,3.8-1.854,4.003-2.42c-0.183-0.633-1.063-3.459-4.047-3.955
		c-2.577,2.35-2.984,2.171-3.21,2.034c-0.023-0.022-0.069-0.022-0.091-0.046c0,0-2.69-2.147-3.324-2.689
		c-0.881-0.746-2.848-2.848-2.938-2.938c-0.588-0.588-2.623-3.211-2.735-3.324c-0.022-0.023-0.045-0.045-0.045-0.091
		c-0.113-0.249-0.316-0.632,2.035-3.21c-0.521-2.961-3.324-3.866-3.98-4.023C9.35,7.044,6.976,8.152,7.542,10.842
		c0,0,1.062,3.865,5.561,8.365l0,0C13.103,19.251,14.934,21.038,15.861,21.966L15.861,21.966z"/>
</g>
</svg>
