<?xml version="1.0" encoding="utf-8"?>
<!-- Generator: Adobe Illustrator 16.0.0, SVG Export Plug-In . SVG Version: 6.00 Build 0)  -->
<!DOCTYPE svg PUBLIC "-//W3C//DTD SVG 1.1//EN" "http://www.w3.org/Graphics/SVG/1.1/DTD/svg11.dtd">
<svg version="1.1" id="Calque_1" xmlns="http://www.w3.org/2000/svg" xmlns:xlink="http://www.w3.org/1999/xlink" x="0px" y="0px"
	 width="37px" height="37px" viewBox="0 0 37 37" enable-background="new 0 0 37 37" xml:space="preserve">
<circle fill="#989898" cx="18.5" cy="18.5" r="18.5"/>
<path fill="#FFFFFF" d="M27.752,12.112h-3.024V7.301c0-0.498-0.403-0.902-0.902-0.902h-10.53c-0.498,0-0.902,0.404-0.902,0.902
	v4.811H9.248c-1.571,0-2.849,1.28-2.849,2.851v7.491c0,1.57,1.278,2.85,2.849,2.85h2.184l-0.582,4.275
	c-0.035,0.258,0.042,0.52,0.215,0.715c0.171,0.195,0.419,0.308,0.679,0.308h13.512c0.26,0,0.508-0.112,0.679-0.308
	c0.173-0.195,0.25-0.457,0.215-0.715l-0.581-4.275h2.184c1.571,0,2.849-1.279,2.849-2.85v-7.491
	C30.601,13.392,29.323,12.112,27.752,12.112z M14.197,8.204h8.727v3.908h-8.727V8.204z M12.778,28.797l0.572-4.216l0.005-0.032
	l0.008-0.068l0.142-1.038h9.988l0.143,1.051v0.001l0.586,4.303H12.778z M28.797,22.453c0,0.576-0.47,1.045-1.045,1.045h-2.429
	l-0.147-1.078c-0.062-0.448-0.442-0.781-0.895-0.781H12.718c-0.451,0-0.833,0.333-0.894,0.781l-0.147,1.078H9.248
	c-0.576,0-1.044-0.469-1.044-1.045v-7.491c0-0.578,0.469-1.046,1.044-1.046h18.504c0.575,0,1.045,0.469,1.045,1.046V22.453z"/>
</svg>
