<?xml version="1.0" encoding="utf-8"?>
<!-- Generator: Adobe Illustrator 16.0.0, SVG Export Plug-In . SVG Version: 6.00 Build 0)  -->
<!DOCTYPE svg PUBLIC "-//W3C//DTD SVG 1.1//EN" "http://www.w3.org/Graphics/SVG/1.1/DTD/svg11.dtd">
<svg version="1.1" id="Calque_1" xmlns="http://www.w3.org/2000/svg" xmlns:xlink="http://www.w3.org/1999/xlink" x="0px" y="0px"
	 width="80px" height="60.636px" viewBox="0 0 80 60.636" enable-background="new 0 0 80 60.636" xml:space="preserve">
<g>
	<path fill="#FFFFFF" d="M62.49,36.376c-0.514,1.845-1.246,3.602-2.173,5.234c1.079,1.131,1.745,2.657,1.745,4.341
		c0,3.476-2.82,6.297-6.298,6.297c-1.683,0-3.209-0.666-4.341-1.744c-1.634,0.927-3.386,1.658-5.234,2.173
		c-0.222,3.276-2.941,5.868-6.274,5.868s-6.055-2.592-6.275-5.868c-1.847-0.515-3.604-1.247-5.237-2.175
		c-1.123,1.035-2.617,1.675-4.266,1.675c-3.478,0-6.296-2.819-6.296-6.296c0-1.649,0.638-3.145,1.674-4.267
		c-0.926-1.635-1.66-3.39-2.175-5.238c-3.277-0.22-5.867-2.943-5.867-6.275c0-3.332,2.59-6.053,5.867-6.275
		c0.518-1.863,1.263-3.634,2.2-5.28c-1.052-1.125-1.699-2.632-1.699-4.292c0-3.478,2.819-6.297,6.296-6.297
		c1.671,0,3.186,0.656,4.314,1.718c1.621-0.912,3.36-1.637,5.189-2.147c0.223-3.276,2.942-5.867,6.275-5.867s6.053,2.59,6.274,5.867
		c1.845,0.514,3.601,1.247,5.234,2.173c1.13-1.077,2.658-1.743,4.341-1.743c3.478,0,6.298,2.819,6.298,6.297
		c0,1.684-0.666,3.211-1.745,4.34c0.927,1.634,1.659,3.388,2.173,5.233c3.275,0.223,5.867,2.942,5.867,6.275
		C68.357,33.435,65.766,36.157,62.49,36.376 M39.915,0.356c-16.402,0-29.745,13.345-29.745,29.745
		c0,16.402,13.342,29.745,29.745,29.745c16.403,0,29.745-13.343,29.745-29.745C69.66,13.701,56.318,0.356,39.915,0.356"/>
	<path fill="#FFFFFF" d="M39.915,45.239c-8.347,0-15.138-6.792-15.138-15.139c0-8.348,6.791-15.138,15.138-15.138
		c8.348,0,15.139,6.791,15.139,15.138C55.054,38.448,48.263,45.239,39.915,45.239 M55.765,30.102c0-2.723,1.731-5.034,4.148-5.912
		c-0.429-1.447-1.007-2.83-1.722-4.127c-0.747,0.312-1.566,0.485-2.426,0.485c-3.477,0-6.297-2.818-6.297-6.295
		c0-0.861,0.173-1.68,0.486-2.426c-1.298-0.716-2.68-1.294-4.128-1.724c-0.877,2.42-3.188,4.15-5.912,4.15
		c-2.722,0-5.035-1.73-5.913-4.15c-1.426,0.422-2.787,0.989-4.068,1.69c0.32,0.756,0.499,1.586,0.499,2.46
		c0,3.479-2.82,6.295-6.296,6.295c-0.883,0-1.722-0.183-2.484-0.51c-0.723,1.304-1.306,2.695-1.738,4.151
		c2.419,0.878,4.15,3.189,4.15,5.912c0,2.723-1.731,5.034-4.15,5.912c0.426,1.435,0.996,2.808,1.704,4.095
		c0.771-0.336,1.622-0.525,2.517-0.525c3.477,0,6.296,2.818,6.296,6.297c0,0.893-0.188,1.744-0.525,2.516
		c1.287,0.708,2.66,1.277,4.094,1.704c0.878-2.418,3.19-4.15,5.913-4.15c2.724,0,5.035,1.732,5.912,4.15
		c1.446-0.429,2.831-1.009,4.128-1.722c-0.313-0.747-0.486-1.566-0.486-2.427c0-3.476,2.82-6.298,6.297-6.298
		c0.861,0,1.678,0.176,2.425,0.487c0.717-1.299,1.295-2.678,1.723-4.127C57.496,35.135,55.765,32.823,55.765,30.102"/>
</g>
</svg>
