<?xml version="1.0" encoding="utf-8"?>
<!-- Generator: Adobe Illustrator 16.0.0, SVG Export Plug-In . SVG Version: 6.00 Build 0)  -->
<!DOCTYPE svg PUBLIC "-//W3C//DTD SVG 1.1//EN" "http://www.w3.org/Graphics/SVG/1.1/DTD/svg11.dtd">
<svg version="1.1" id="Calque_1" xmlns="http://www.w3.org/2000/svg" xmlns:xlink="http://www.w3.org/1999/xlink" x="0px" y="0px"
	 width="35.072px" height="35.126px" viewBox="0 0 35.072 35.126" enable-background="new 0 0 35.072 35.126" xml:space="preserve">
<g>
	<g>
		<defs>
			<rect id="SVGID_1_" x="-0.226" y="-0.171" width="35.297" height="35.297"/>
		</defs>
		<clipPath id="SVGID_2_">
			<use xlink:href="#SVGID_1_"  overflow="visible"/>
		</clipPath>
		<path clip-path="url(#SVGID_2_)" fill="#F28E00" d="M30.818,21.202c-0.305,1.094-0.739,2.136-1.289,3.104
			c0.641,0.672,1.035,1.577,1.035,2.577c0,2.062-1.673,3.736-3.737,3.736c-0.999,0-1.903-0.396-2.575-1.035
			c-0.97,0.55-2.009,0.984-3.104,1.289c-0.132,1.944-1.748,3.482-3.724,3.482c-1.977,0-3.593-1.538-3.723-3.482
			c-1.096-0.305-2.139-0.739-3.108-1.29c-0.666,0.614-1.554,0.993-2.53,0.993c-2.063,0-3.737-1.673-3.737-3.735
			c0-0.978,0.379-1.866,0.993-2.531c-0.55-0.97-0.985-2.012-1.29-3.108c-1.944-0.131-3.481-1.747-3.481-3.723
			c0-1.979,1.537-3.592,3.481-3.724c0.308-1.105,0.749-2.156,1.305-3.133C4.71,9.954,4.326,9.06,4.326,8.073
			c0-2.063,1.673-3.736,3.737-3.736c0.991,0,1.89,0.389,2.559,1.02c0.961-0.542,1.994-0.973,3.079-1.274
			c0.131-1.944,1.746-3.482,3.723-3.482c1.978,0,3.592,1.538,3.724,3.482c1.094,0.304,2.134,0.739,3.104,1.288
			c0.672-0.639,1.576-1.034,2.575-1.034c2.063,0,3.737,1.673,3.737,3.736c0,1-0.395,1.906-1.035,2.576
			c0.55,0.97,0.984,2.011,1.289,3.105c1.944,0.132,3.481,1.745,3.481,3.724C34.299,19.454,32.762,21.07,30.818,21.202 M17.423-0.171
			c-9.731,0-17.649,7.918-17.649,17.649c0,9.731,7.917,17.648,17.649,17.648s17.648-7.917,17.648-17.648
			C35.072,7.747,27.155-0.171,17.423-0.171"/>
	</g>
	<g>
		<defs>
			<rect id="SVGID_3_" x="-0.226" y="-0.171" width="35.297" height="35.297"/>
		</defs>
		<clipPath id="SVGID_4_">
			<use xlink:href="#SVGID_3_"  overflow="visible"/>
		</clipPath>
		<path clip-path="url(#SVGID_4_)" fill="#F28E00" d="M17.423,26.459c-4.953,0-8.981-4.029-8.981-8.981
			c0-4.954,4.029-8.983,8.981-8.983c4.953,0,8.983,4.029,8.983,8.983C26.407,22.43,22.375,26.459,17.423,26.459 M26.827,17.479
			c0-1.616,1.028-2.987,2.463-3.509c-0.255-0.858-0.597-1.678-1.023-2.448c-0.442,0.186-0.928,0.288-1.439,0.288
			c-2.061,0-3.735-1.672-3.735-3.736c0-0.51,0.103-0.996,0.288-1.439c-0.77-0.424-1.589-0.768-2.447-1.023
			c-0.522,1.436-1.894,2.462-3.509,2.462c-1.616,0-2.988-1.026-3.509-2.462c-0.845,0.25-1.652,0.587-2.413,1.002
			c0.189,0.449,0.295,0.941,0.295,1.459c0,2.064-1.673,3.736-3.734,3.736c-0.524,0-1.022-0.108-1.474-0.302
			c-0.43,0.773-0.776,1.599-1.031,2.462c1.435,0.522,2.462,1.894,2.462,3.509c0,1.615-1.027,2.986-2.462,3.508
			c0.252,0.852,0.592,1.665,1.012,2.429c0.457-0.199,0.961-0.312,1.494-0.312c2.062,0,3.734,1.672,3.734,3.736
			c0,0.531-0.112,1.036-0.311,1.493c0.764,0.42,1.579,0.758,2.428,1.011c0.521-1.436,1.894-2.461,3.509-2.461
			c1.615,0,2.986,1.026,3.509,2.461c0.858-0.255,1.677-0.598,2.447-1.022c-0.185-0.443-0.288-0.929-0.288-1.439
			c0-2.062,1.673-3.737,3.735-3.737c0.512,0,0.997,0.103,1.439,0.289c0.427-0.771,0.77-1.589,1.023-2.448
			C27.855,20.465,26.827,19.093,26.827,17.479"/>
	</g>
</g>
</svg>
