<?xml version="1.0" encoding="utf-8"?>
<!-- Generator: Adobe Illustrator 16.0.0, SVG Export Plug-In . SVG Version: 6.00 Build 0)  -->
<!DOCTYPE svg PUBLIC "-//W3C//DTD SVG 1.1//EN" "http://www.w3.org/Graphics/SVG/1.1/DTD/svg11.dtd">
<svg version="1.1" id="Calque_1" xmlns="http://www.w3.org/2000/svg" xmlns:xlink="http://www.w3.org/1999/xlink" x="0px" y="0px"
	 width="37px" height="37px" viewBox="0 0 37 37" enable-background="new 0 0 37 37" xml:space="preserve">
<g>
	<path fill="#FFFFFF" d="M27.252,21.512c-0.366,0-0.663,0.297-0.663,0.662v3.909c0,1.095-0.891,1.985-1.985,1.985H10.036
		c-1.096,0-1.987-0.892-1.987-1.985V11.515c0-1.095,0.891-1.986,1.987-1.986h9.334c0.364,0,0.662-0.296,0.662-0.662
		c0-0.366-0.298-0.662-0.662-0.662h-9.334c-1.826,0-3.311,1.485-3.311,3.311v14.568c0,1.824,1.485,3.311,3.311,3.311h14.565
		c1.826,0,3.312-1.485,3.312-3.311v-3.909C27.914,21.809,27.617,21.512,27.252,21.512z"/>
	<path fill="#FFFFFF" d="M30.273,13.452c0.002-0.021,0-0.043,0-0.065c-0.002-0.022-0.004-0.043-0.006-0.064
		c-0.004-0.021-0.01-0.041-0.016-0.061c-0.004-0.021-0.01-0.042-0.018-0.062s-0.018-0.039-0.026-0.058s-0.019-0.039-0.03-0.057
		c-0.01-0.018-0.021-0.034-0.033-0.051c-0.015-0.019-0.028-0.038-0.045-0.055c-0.006-0.006-0.011-0.014-0.017-0.02l-5.158-5.158
		c-0.26-0.259-0.679-0.259-0.937,0c-0.26,0.259-0.26,0.678,0,0.936l3.643,3.643c-2.348-0.295-6.193-0.345-9.482,1.657
		c-2.784,1.694-4.597,4.517-5.387,8.39c-0.073,0.357,0.158,0.707,0.516,0.78c0.044,0.011,0.09,0.016,0.132,0.016
		c0.309,0,0.584-0.217,0.649-0.529c0.714-3.494,2.319-6.024,4.771-7.521c3.341-2.037,7.479-1.682,9.452-1.348l-4.293,4.294
		c-0.259,0.258-0.259,0.678,0,0.937c0.129,0.129,0.299,0.194,0.469,0.194c0.169,0,0.338-0.065,0.468-0.194l5.157-5.158
		c0.008-0.008,0.013-0.016,0.021-0.023c0.017-0.019,0.032-0.04,0.049-0.06c0.012-0.016,0.021-0.033,0.031-0.05
		c0.012-0.019,0.021-0.038,0.03-0.058c0.013-0.021,0.021-0.044,0.026-0.066c0.004-0.011,0.01-0.021,0.012-0.031
		c0.003-0.009,0.003-0.017,0.005-0.025c0.007-0.024,0.011-0.047,0.015-0.071C30.271,13.492,30.273,13.472,30.273,13.452z"/>
</g>
</svg>
