<?xml version="1.0" encoding="utf-8"?>
<!-- Generator: Adobe Illustrator 16.0.0, SVG Export Plug-In . SVG Version: 6.00 Build 0)  -->
<!DOCTYPE svg PUBLIC "-//W3C//DTD SVG 1.1//EN" "http://www.w3.org/Graphics/SVG/1.1/DTD/svg11.dtd">
<svg version="1.1" id="Calque_1" xmlns="http://www.w3.org/2000/svg" xmlns:xlink="http://www.w3.org/1999/xlink" x="0px" y="0px"
	 width="37px" height="37px" viewBox="0 0 37 37" enable-background="new 0 0 37 37" xml:space="preserve">
<path fill="#FFFFFF" d="M14.945,28.98c-4.739,0-8.61-2.274-8.674-2.313c-0.37-0.224-0.533-0.675-0.391-1.084
	c0.144-0.407,0.549-0.665,0.984-0.601c2.567,0.344,4.354-0.467,5.312-1.104C9.803,22.079,4.49,17.003,7.749,9.479
	c0.134-0.311,0.43-0.521,0.767-0.547c0.329-0.023,0.662,0.137,0.842,0.421c0.097,0.152,2.382,3.591,8.095,4.311
	c0.012-3.114,2.55-5.644,5.666-5.644c1.39,0,2.699,0.498,3.736,1.414c1.5-0.159,2.68-0.193,2.734-0.196
	c0.123,0.002,0.24,0.018,0.348,0.059c0.201-0.074,0.427-0.08,0.645,0.001c0.47,0.178,0.708,0.704,0.529,1.174
	c-0.176,0.463-1.014,2.579-2.156,3.661c0.285,2.63-0.368,6.499-4.586,10.842C21.387,28.044,17.987,28.98,14.945,28.98z
	 M10.642,26.551c3.27,0.977,8.287,1.405,12.418-2.847c3.985-4.104,4.385-7.604,4.021-9.814c-0.062-0.367,0.108-0.736,0.429-0.929
	c0.412-0.247,0.916-1.041,1.33-1.86c-0.554,0.033-1.342,0.093-2.197,0.194c-0.279,0.028-0.563-0.067-0.762-0.272
	c-0.734-0.76-1.717-1.178-2.761-1.178c-2.119,0-3.843,1.725-3.843,3.844c0,0.277,0.027,0.542,0.084,0.786
	c0.061,0.28-0.012,0.572-0.195,0.791c-0.188,0.219-0.471,0.338-0.751,0.32c-5.036-0.304-8.04-2.495-9.503-3.952
	c-2.007,7.094,4.915,11.204,5.229,11.388c0.237,0.136,0.4,0.373,0.444,0.644c0.043,0.271-0.037,0.546-0.218,0.752
	C14.29,24.501,13.024,25.893,10.642,26.551z"/>
</svg>
