<?xml version="1.0" encoding="utf-8"?>
<!-- Generator: Adobe Illustrator 16.0.0, SVG Export Plug-In . SVG Version: 6.00 Build 0)  -->
<!DOCTYPE svg PUBLIC "-//W3C//DTD SVG 1.1//EN" "http://www.w3.org/Graphics/SVG/1.1/DTD/svg11.dtd">
<svg version="1.1" id="Calque_1" xmlns="http://www.w3.org/2000/svg" xmlns:xlink="http://www.w3.org/1999/xlink" x="0px" y="0px"
	 width="285.734px" height="380.979px" viewBox="278.078 47.622 285.734 380.979"
	 enable-background="new 278.078 47.622 285.734 380.979" xml:space="preserve">
<g sketch:type="MSPage">
	<g transform="translate(-270.000000, -270.000000)" sketch:type="MSArtboardGroup">
		<g transform="translate(276.000000, 273.000000)" sketch:type="MSLayerGroup">
			<path sketch:type="MSShapeGroup" fill="#BA2424" d="M272.078,417.664c0,4.384,3.554,7.938,7.937,7.938h269.86
				c4.385,0,7.938-3.554,7.938-7.938V127.168c0-2.105-0.836-4.124-2.325-5.612l-74.608-74.608c-1.488-1.488-3.506-2.325-5.612-2.325
				H280.014c-4.383,0-7.937,3.554-7.937,7.938V417.664z M541.937,409.728H287.952V60.496h174.616v71.434
				c0,4.384,3.553,7.938,7.936,7.938h71.434V409.728z M535.429,123.993h-56.988V67.005L535.429,123.993z"/>
			<path sketch:type="MSShapeGroup" fill="#BA2424" d="M440.995,253.318c3.096-3.104,8.123-3.109,11.225-0.014
				c3.104,3.096,3.111,8.121,0.014,11.225l-31.669,31.748c-3.1,3.106-8.129,3.109-11.232,0.007l-31.748-31.748
				c-3.1-3.1-3.1-8.125,0-11.225s8.125-3.1,11.225,0l18.198,18.22v-60.229c0-4.384,3.554-7.938,7.938-7.938
				c4.382,0,7.936,3.554,7.936,7.938v60.176L440.995,253.318z"/>
		</g>
	</g>
</g>
</svg>
